<?xml version="1.0" standalone="no"?>
<!DOCTYPE svg PUBLIC "-//W3C//DTD SVG 20010904//EN"
 "http://www.w3.org/TR/2001/REC-SVG-20010904/DTD/svg10.dtd">
<svg version="1.0" xmlns="http://www.w3.org/2000/svg"
 width="400.000000pt" height="403.000000pt" viewBox="0 0 400.000000 403.000000"
 preserveAspectRatio="xMidYMid meet">

<g transform="translate(0.000000,403.000000) scale(0.100000,-0.100000)"
fill="#000000" stroke="none">
<path d="M1758 3985 c-275 -39 -518 -119 -727 -238 -267 -153 -491 -362 -658
-612 -81 -123 -124 -203 -184 -342 -172 -401 -200 -827 -84 -1279 105 -410
332 -758 674 -1036 233 -188 551 -339 838 -397 279 -57 575 -52 833 13 570
145 1013 504 1303 1056 93 177 163 404 192 623 108 835 -333 1660 -1089 2035
-138 68 -337 135 -486 162 -149 28 -468 36 -612 15z m555 -130 c358 -74 694
-253 947 -505 272 -270 423 -539 519 -925 76 -309 46 -734 -76 -1040 -84 -212
-186 -385 -322 -547 -292 -347 -665 -562 -1110 -637 -107 -18 -364 -31 -350
-17 2 2 47 9 100 15 257 29 470 136 647 326 121 129 206 287 249 463 24 95 23
311 -1 417 -36 160 -83 256 -195 398 l-45 56 -99 -202 c-238 -485 -313 -643
-387 -812 -43 -99 -104 -238 -137 -310 -33 -72 -62 -137 -65 -145 -5 -17 -27
28 -140 290 -44 102 -118 263 -164 358 -46 95 -84 175 -84 177 0 2 -43 97 -95
210 -52 113 -95 207 -95 209 0 3 -21 49 -46 103 -26 54 -72 154 -104 223 -31
69 -96 197 -144 284 l-87 160 49 105 c40 82 48 109 42 127 -20 51 -40 205 -40
299 1 406 264 777 639 900 139 46 425 55 594 20z"/>
<path d="M1712 3770 c-12 -19 -22 -41 -22 -49 0 -19 -180 -390 -401 -826 -103
-203 -199 -397 -214 -431 l-26 -61 84 -156 c80 -149 237 -477 400 -837 42 -91
100 -217 130 -280 l56 -115 0 255 c0 140 -3 261 -8 269 -8 12 -12 13 -26 1
-23 -19 -54 -2 -101 55 -44 54 -46 80 -19 211 8 40 15 105 15 144 l0 71 28
-15 c50 -26 119 -108 133 -156 7 -25 15 -49 19 -53 11 -13 21 86 14 132 -9 56
5 53 76 -17 88 -88 150 -226 150 -331 -1 -72 -29 -139 -108 -259 -81 -123 -84
-144 -38 -232 36 -70 45 -113 25 -126 -19 -11 -59 -107 -59 -141 0 -27 42
-131 140 -347 l22 -48 53 114 c64 137 106 238 98 238 -2 0 -23 -16 -45 -34
-71 -61 -124 -56 -168 17 -30 48 -25 85 18 142 21 28 48 65 61 83 l23 34 -30
31 c-81 86 -72 133 64 328 87 127 96 160 84 304 -11 127 7 221 54 280 14 19
15 17 9 -32 -3 -28 -2 -73 2 -100 l7 -48 13 36 c24 68 53 114 91 145 37 29 77
54 87 54 3 0 2 -28 0 -62 -3 -38 1 -98 11 -149 25 -131 22 -151 -25 -214 -22
-29 -47 -56 -55 -59 -26 -10 -54 -7 -54 6 0 8 -3 9 -10 2 -7 -7 -9 -97 -8
-249 l3 -238 170 354 c94 194 210 430 258 524 48 93 122 238 164 321 l76 151
-305 604 c-167 332 -322 643 -343 692 -21 48 -42 87 -47 87 -4 0 -8 -24 -8
-53 0 -33 -7 -67 -20 -92 -22 -43 -26 -80 -10 -90 6 -3 10 1 10 9 0 19 19 31
30 20 8 -8 109 -330 171 -548 40 -137 39 -147 -21 -210 -77 -82 -65 -134 16
-72 76 58 80 55 123 -103 40 -144 46 -190 31 -235 -31 -96 -240 -111 -240 -17
0 21 11 39 40 65 46 42 49 49 16 36 -56 -21 -135 -83 -145 -113 -17 -47 -4
-94 33 -120 47 -34 160 -31 239 5 31 15 57 23 57 19 0 -10 -87 -91 -97 -91 -5
0 4 12 20 25 38 33 34 37 -15 15 -57 -26 -151 -26 -197 -2 -64 34 -86 112 -57
195 8 20 10 37 7 37 -16 0 -75 -95 -91 -148 l-18 -57 -1 48 c-1 61 -17 98 -76
172 -25 33 -53 75 -61 93 -18 43 -18 103 -1 126 8 11 56 42 108 71 120 66 139
92 139 189 0 105 -23 140 -123 189 -85 42 -98 65 -49 91 25 14 102 86 90 86
-2 0 -20 -7 -38 -17 -38 -19 -117 -29 -154 -19 -46 11 -81 107 -67 184 10 50
-2 54 -29 10 -15 -26 -20 -51 -20 -111 0 -54 -5 -88 -17 -110 -9 -18 -20 -62
-23 -98 -5 -45 -14 -77 -30 -98 -21 -31 -22 -36 -10 -92 7 -32 16 -59 19 -59
4 0 13 16 19 34 17 47 103 123 155 137 74 20 175 -28 178 -85 4 -64 -17 -98
-74 -124 -23 -10 -66 -29 -95 -42 -60 -27 -135 -101 -159 -158 -9 -20 -16 -60
-16 -87 -1 -41 5 -61 36 -111 37 -59 67 -139 67 -173 -1 -9 -12 7 -27 36 -14
28 -43 68 -63 88 l-38 38 15 -44 c24 -67 12 -114 -44 -168 l-46 -44 -73 6
c-40 3 -82 10 -94 17 -11 6 -26 9 -33 7 -7 -2 13 -18 43 -35 60 -35 62 -44 2
-13 -20 11 -55 38 -77 60 l-39 41 64 -26 c68 -28 152 -41 193 -30 14 3 39 20
56 37 25 24 31 39 31 72 -1 53 -14 70 -92 118 -79 49 -92 49 -46 2 52 -55 56
-77 19 -113 -36 -37 -68 -38 -137 -6 -73 34 -88 69 -68 161 25 121 61 256 71
266 10 10 68 -17 106 -50 16 -13 19 -13 27 -1 16 25 12 34 -34 79 -72 70 -72
76 -31 242 20 79 54 207 76 284 22 77 47 164 55 193 13 45 18 52 40 52 13 0
27 -7 30 -15 8 -20 20 -19 28 2 4 10 -4 32 -21 55 -21 31 -28 56 -33 111 l-5
72 -23 -35z"/>
</g>
</svg>
