<?xml version="1.0" encoding="UTF-8"?>
<!-- Generator: https://ezgif.com/png-to-svg -->
<svg version="1.1" xmlns="http://www.w3.org/2000/svg" width="1536" height="1024">
<path d="M0 0 C506.88 0 1013.76 0 1536 0 C1536 337.92 1536 675.84 1536 1024 C1029.12 1024 522.24 1024 0 1024 C0 686.08 0 348.16 0 0 Z " fill="#FEFEFE" transform="translate(0,0)"/>
<path d="M0 0 C-0.56 3.61 -1.45 6.07 -3.44 9.12 C-9.92 19.58 -15.38 30.69 -20.88 41.69 C-21.35 42.64 -21.35 42.64 -21.84 43.61 C-23.79 47.52 -25.7 51.45 -27.6 55.38 C-34.86 70.3 -42.99 84.51 -51.61 98.68 C-52.99 100.92 -52.99 100.92 -54 103 C-32.67 104.05 -15.92 99.36 3.85 92.17 C9.82 90.02 15.84 88.21 22 86.69 C22.78 86.49 23.56 86.29 24.37 86.08 C27.84 85.26 30.61 84.63 34 86 C33.29 86.56 32.57 87.11 31.84 87.69 C25.96 92.37 20.56 97 16 103 C15.57 103.56 15.13 104.12 14.69 104.7 C11.43 109.54 11.08 114.39 12 120 C14.56 124.81 17.97 126.23 23 128 C27.18 129.05 31.17 129.15 35.47 129.21 C36.94 129.24 38.42 129.27 39.89 129.3 C42.18 129.34 44.48 129.37 46.77 129.4 C56.61 129.53 65.48 130.29 75 133 C72.12 134.92 69.67 135.88 66.44 137.06 C59.39 139.94 52.8 144.42 48.75 151.04 C47.48 154.36 47.38 157.54 48 161 C51.54 167.14 56.37 169.01 63 171 C64.87 171.44 66.74 171.87 68.61 172.29 C78.15 174.45 86.58 177.99 95 183 C95.33 183.66 95.66 184.32 96 185 C94.86 185.04 94.86 185.04 93.69 185.08 C85.35 185.54 78.32 186.43 72.44 192.75 C70.18 197.85 70.29 201.72 71.94 207 C76.11 213.07 81.91 217.34 88 221.38 C93.56 225.13 97.73 229.87 102 235 C101.67 235.66 101.34 236.32 101 237 C99.8 236.86 98.61 236.71 97.38 236.56 C93.85 236.6 92.04 237.22 89.5 239.69 C86.29 244.05 86.22 248.3 86.48 253.59 C87.76 261.95 91.79 270.32 97 277 C97.66 277.33 98.32 277.66 99 278 C99.68 275.99 100.36 273.98 101.02 271.97 C101.71 269.88 102.42 267.8 103.14 265.72 C108.64 249.19 112.74 231.46 113 214 C113.02 213.17 113.04 212.34 113.06 211.48 C114.1 162.41 107.56 92.47 73 54.31 C70.15 51.61 69.19 51.04 65.19 50.25 C62.03 50.73 62.03 50.73 60.25 52.56 C58.66 55.66 57.3 58.78 56 62 C51.81 54.45 51.98 45.08 54.06 36.88 C57.01 28.3 62.15 22.82 70.18 18.78 C76.87 16.93 83.02 17.85 89.44 20.31 C90.15 20.57 90.86 20.84 91.59 21.11 C135.54 37.68 177.44 59.72 215 88 C215.58 88.43 216.15 88.86 216.75 89.31 C235.95 103.67 253.52 119.47 270.5 136.38 C271.34 137.21 272.17 138.04 273.04 138.9 C310.47 176.44 339.33 223.93 363 271 C363.46 271.91 363.92 272.81 364.39 273.74 C385.87 316.2 398.84 362.73 409 409 C409.28 410.28 409.56 411.55 409.86 412.87 C413.18 427.95 416.3 443.04 418.94 458.25 C419.15 459.46 419.36 460.68 419.58 461.93 C420.38 466.68 421.12 471.17 421 476 C418.69 473.69 418.1 471.92 416.94 468.88 C407.95 446.92 395.36 429.16 373.2 419.19 C360.8 414.58 346.07 413.79 333.64 418.74 C317.57 426.43 307.49 437.38 301 454 C300.63 454.94 300.26 455.88 299.88 456.85 C296.33 466.94 295.74 477.4 295 488 C294.34 488 293.68 488 293 488 C291.23 485.59 289.57 483.18 287.94 480.69 C279.48 468.1 269.74 456.71 259 446 C257.81 444.74 257.81 444.74 256.6 443.46 C241.18 427.37 222.44 416.87 201 411 C200.35 410.82 199.7 410.64 199.03 410.46 C174.75 404.16 147.59 406.25 125 417 C123.9 417.52 122.8 418.04 121.67 418.58 C115.93 421.21 115.93 421.21 111 425 C121.83 428.26 132.51 431.23 143.66 433.15 C149.29 434.19 154.83 435.63 160.38 437.06 C161.39 437.32 162.41 437.58 163.46 437.84 C164.88 438.22 164.88 438.22 166.34 438.6 C167.19 438.82 168.04 439.04 168.92 439.27 C171 440 171 440 173 442 C171.94 442.23 170.88 442.46 169.78 442.7 C161.05 444.68 153.57 446.43 147 453 C147.08 456.54 147.5 458.42 149.81 461.12 C162.16 468.39 176.94 469.17 190.88 470.31 C203.58 471.41 215.71 473.53 228 477 C223.99 479.68 219.6 481.04 215.07 482.61 C210.56 484.24 206.78 486.02 203 489 C202.08 492 202.08 492 203 495 C214.06 505.17 231.1 506.11 245.25 508.5 C269.65 512.65 269.65 512.65 279.8 515.59 C280.82 515.89 280.82 515.89 281.86 516.19 C285.42 517.28 288.18 518.55 291 521 C289.74 521.24 288.49 521.48 287.2 521.73 C271.66 523.93 271.66 523.93 259 532 C258.39 536.11 258.43 538.17 260.81 541.62 C269.33 547.97 279.55 550.48 289.65 553.19 C306.04 557.62 322.31 562.27 337 571 C337 571.33 337 571.66 337 572 C335.44 572.06 335.44 572.06 333.85 572.11 C321.08 572.05 321.08 572.05 310 577 C309.63 580.29 309.51 582.26 311.38 585.06 C318.8 590.54 327.6 593.42 336.25 596.38 C353.27 602.37 368.6 609.46 381 623 C378.38 624.31 377.32 623.75 374.5 623.06 C369.27 621.93 364.33 621.8 359 622 C359.76 626.65 360.6 629.09 364.42 631.96 C365.85 632.93 367.3 633.88 368.75 634.81 C370.3 635.86 371.85 636.9 373.39 637.95 C374.17 638.46 374.95 638.97 375.74 639.5 C385.08 645.7 393.87 652.26 402 660 C402.6 660.52 403.2 661.05 403.82 661.59 C415.27 672.03 424.37 688.22 425.2 703.79 C425.58 724.25 419.12 739.31 404.91 754.18 C380.26 777.69 335.88 788.24 302.91 788.11 C301.45 788.11 301.45 788.11 299.95 788.11 C296.75 788.11 293.55 788.11 290.34 788.1 C288.11 788.1 285.88 788.09 283.65 788.09 C277.8 788.09 271.95 788.08 266.09 788.07 C260.12 788.06 254.14 788.05 248.16 788.05 C236.44 788.04 224.72 788.02 213 788 C214.09 789.28 215.19 790.55 216.29 791.82 C216.89 792.53 217.5 793.24 218.13 793.98 C219.81 795.79 221.49 797.3 223.44 798.81 C224.28 799.53 225.13 800.26 226 801 C226 801.99 226 802.98 226 804 C192.41 806.15 157.57 796.32 125 789 C133.68 770.68 165.06 757.52 182.6 749.16 C185.51 747.75 188.41 746.32 191.3 744.88 C193.56 743.77 195.81 742.67 198.06 741.56 C199.13 741.03 200.21 740.5 201.31 739.95 C206.59 737.38 211.1 735.33 217 735 C216.66 740.57 214.35 743.42 210.56 747.25 C210.06 747.78 209.56 748.31 209.04 748.85 C207.05 750.93 205.03 752.97 203 755 C223.24 752.76 243.32 749.54 263.41 746.24 C268.35 745.43 273.29 744.65 278.23 743.9 C292.04 741.75 305.65 738.06 314.88 726.69 C317.01 721.58 316.58 717.6 314.75 712.56 C292.87 679.25 217.82 672.43 182 664 C182.02 665.07 182.03 666.14 182.05 667.24 C182.07 668.67 182.08 670.1 182.09 671.53 C182.11 672.58 182.11 672.58 182.13 673.65 C182.18 680.42 180.87 686.49 179 693 C175.3 689.41 171.94 685.64 168.65 681.67 C167 679.75 167 679.75 164 679 C158.81 685.68 153.95 692.49 149.31 699.56 C140.39 713.09 130.75 725.99 120.43 738.48 C116.13 743.72 112.35 749.1 109 755 C108.64 755.61 108.29 756.21 107.92 756.84 C106.84 759.37 106.83 761.07 106.95 763.81 C106.97 764.72 106.99 765.63 107.02 766.57 C107.09 768.48 107.17 770.39 107.25 772.29 C107.42 779.31 107.42 779.31 105.12 783.1 C101.96 785.93 100.17 786.14 96.01 786.24 C94.45 786.28 94.45 786.28 92.85 786.32 C88.01 786.4 83.18 786.47 78.34 786.51 C75.81 786.55 73.28 786.59 70.75 786.66 C54.38 787.07 42.4 785.91 28 778 C21.01 775.97 14.21 776.04 7.62 779.25 C4.86 780.77 2.76 782.22 0.38 784.31 C-3.14 786.81 -5.76 786.29 -10 786 C-9.52 779.97 -6.8 775.23 -4 770 C-12.82 773.88 -21.15 779.15 -28 786 C-28.99 786 -29.98 786 -31 786 C-32.31 774.49 -24.51 762.97 -17.66 754.3 C-14.22 750.1 -10.65 746.02 -7 742 C-6.21 741.13 -5.42 740.25 -4.61 739.36 C1.73 732.68 10.23 724.96 19.81 724.69 C24.62 724.72 26.39 725.77 30 729 C31.88 729.61 31.88 729.61 33.94 730 C39.01 731.09 42.6 733.43 46.06 737.31 C47.88 739.22 47.88 739.22 50.44 739.25 C57.55 735.78 60.92 724.26 64.12 717.5 C64.69 716.32 65.25 715.14 65.83 713.93 C70.54 704.07 75.11 694.16 79.62 684.22 C81.03 681.12 82.45 678.04 83.91 674.97 C90.36 662 90.36 662 90 648 C87.65 645.06 87.65 645.06 85 643 C84.67 642.67 84.34 642.34 84 642 C82.24 641.82 80.47 641.7 78.7 641.61 C77.59 641.54 76.47 641.47 75.33 641.4 C73.52 641.3 73.52 641.3 71.69 641.19 C57.03 640.22 43.2 637.6 29 634 C28.86 635.15 28.71 636.31 28.56 637.5 C24.46 655.6 8.7 673.21 -3 687 C-3.88 688.05 -4.75 689.09 -5.62 690.14 C-12.56 698.38 -19.85 706.11 -27.51 713.67 C-28.66 714.81 -29.8 715.95 -30.95 717.1 C-33.92 720.05 -36.89 723 -39.87 725.95 C-44.67 730.71 -49.47 735.47 -54.26 740.24 C-55.93 741.9 -57.6 743.55 -59.27 745.2 C-60.28 746.21 -61.29 747.22 -62.3 748.22 C-63.63 749.54 -63.63 749.54 -64.99 750.88 C-67.87 753.92 -68.14 755.54 -68.12 759.62 C-68.12 760.52 -68.12 761.42 -68.12 762.35 C-68.01 764.7 -67.65 766.72 -67.12 769 C-66.41 773.74 -68.86 776.94 -71.36 780.8 C-75.12 785.85 -75.12 785.85 -78.27 786.4 C-79.61 786.42 -79.61 786.42 -80.97 786.44 C-82.49 786.46 -82.49 786.46 -84.04 786.49 C-85.68 786.5 -85.68 786.5 -87.35 786.5 C-88.48 786.51 -89.61 786.52 -90.77 786.53 C-93.16 786.55 -95.56 786.56 -97.95 786.56 C-101.59 786.56 -105.23 786.62 -108.87 786.67 C-111.2 786.68 -113.52 786.69 -115.85 786.69 C-116.93 786.71 -118.01 786.73 -119.13 786.76 C-126.8 786.69 -131.06 784.74 -137 780 C-142.53 776.71 -147.41 773.82 -154 775 C-160.08 777.36 -165.19 780.62 -170.11 784.86 C-172.52 786.31 -174.24 786.2 -177 786 C-177.47 778.67 -176.1 773.63 -173 767 C-180.72 770.38 -186.81 774.13 -192.84 780.05 C-194.84 781.86 -196.54 782.95 -199 784 C-200.07 770.31 -194.24 759.64 -185.59 749.32 C-166.28 727.13 -166.28 727.13 -153.7 724.52 C-149.22 724.34 -146.69 725.73 -143 728 C-141.87 728 -140.73 728 -139.56 728 C-135.35 728 -133.51 728.69 -130 731 C-128.33 732.76 -126.8 734.57 -125.3 736.48 C-124.06 738.13 -124.06 738.13 -122 739 C-121.72 738.42 -121.45 737.83 -121.16 737.23 C-120.05 735.1 -118.83 733.25 -117.42 731.3 C-116.65 730.25 -116.65 730.25 -115.86 729.16 C-115.31 728.41 -114.76 727.65 -114.19 726.88 C-113 725.25 -111.82 723.62 -110.64 721.99 C-110.03 721.16 -109.43 720.33 -108.8 719.48 C-106.02 715.66 -103.26 711.83 -100.5 708 C-99.42 706.5 -98.33 705 -97.25 703.5 C-96.71 702.76 -96.18 702.01 -95.62 701.25 C-90.75 694.5 -90.75 694.5 -89.12 692.25 C-88.04 690.75 -86.96 689.25 -85.88 687.76 C-82.59 683.19 -79.28 678.64 -75.97 674.1 C-74.33 671.84 -72.72 669.57 -71.1 667.29 C-69.14 664.53 -67.1 661.87 -64.96 659.24 C-57.15 649.29 -56.56 640.4 -58 628 C-58.17 627.07 -58.35 626.13 -58.52 625.17 C-61.12 607.93 -59.97 588 -53.3 571.76 C-51.75 567.3 -51.75 567.3 -53 563 C-54.45 560.3 -56.06 557.72 -57.69 555.12 C-75.96 524.93 -77.7 490.83 -69.59 457.03 C-63.11 431.16 -53.19 406.8 -42.83 382.31 C-12.41 312.14 -12.41 312.14 -18 237.75 C-24.37 223.89 -37.79 211.39 -52 206 C-55.01 205.93 -55.01 205.93 -58 207 C-60.42 209.47 -60.42 209.47 -62.44 212.62 C-73.88 228.8 -87.5 233.92 -106 239 C-133.57 246.61 -133.57 246.61 -153.62 266.19 C-156.87 272.61 -156.55 278.96 -156 286 C-169.17 286.62 -180.52 285.55 -193.12 281.57 C-197.15 280.2 -197.15 280.2 -201.25 280.69 C-206.54 281.29 -210.48 278.17 -214.49 275.08 C-225.87 265.33 -234.59 252.27 -236.32 237.19 C-236.77 229.48 -235.09 223.91 -230 218 C-229.01 217.67 -228.02 217.34 -227 217 C-225.86 217.74 -225.86 217.74 -224.69 218.5 C-221.15 220.47 -219.87 220.08 -216 219 C-213.52 217.53 -211.34 215.77 -209.12 213.94 C-208.51 213.44 -207.9 212.94 -207.26 212.42 C-198.81 205.48 -192.49 198.55 -187 189 C-186.64 188.4 -186.28 187.8 -185.91 187.18 C-184.78 184.47 -184.85 182.5 -184.98 179.56 C-185.01 178.5 -185.04 177.44 -185.07 176.35 C-185.15 174.15 -185.24 171.95 -185.34 169.75 C-185.65 156.6 -180.39 147.67 -172.31 137.69 C-170.87 135.85 -169.44 134.02 -168 132.18 C-167.31 131.29 -166.62 130.41 -165.91 129.49 C-160.11 121.92 -155.12 113.79 -150.06 105.72 C-149.58 104.97 -149.11 104.21 -148.62 103.44 C-148.14 102.67 -147.66 101.9 -147.16 101.11 C-133.09 78.79 -118.44 56.62 -102.2 35.83 C-99.77 32.7 -97.44 29.52 -95.16 26.29 C-94.77 25.87 -94.39 25.44 -94 25 C-93.34 25 -92.68 25 -92 25 C-92.63 31.02 -93.8 36.7 -95.33 42.55 C-95.67 43.91 -95.67 43.91 -96.03 45.28 C-96.52 47.18 -97.01 49.09 -97.5 50.99 C-98.24 53.83 -98.97 56.68 -99.7 59.52 C-102.66 71.05 -105.77 82.54 -109 94 C-108.67 94.33 -108.34 94.66 -108 95 C-107.08 94.14 -106.16 93.29 -105.22 92.4 C-93.69 81.65 -93.69 81.65 -87.91 76.66 C-84.75 73.92 -81.66 71.1 -78.55 68.3 C-76.93 66.84 -75.31 65.39 -73.67 63.95 C-63.83 55.28 -54.21 46.05 -45.74 36.02 C-42.9 32.72 -39.93 29.55 -36.97 26.36 C-34.56 23.75 -32.26 21.1 -30.06 18.31 C-23.53 10.64 -10.49 0 0 0 Z " fill="#4D4B62" transform="translate(997,95)"/>
<path d="M0 0 C9.18 6.68 17.5 14.41 25.82 22.11 C32.4 28.24 32.4 28.24 39.56 33.63 C40.33 32.85 41.11 32.06 41.9 31.25 C47.61 25.49 53.34 19.86 59.56 14.63 C60.43 13.88 61.29 13.12 62.19 12.34 C81.09 -3.9 104.72 -19.09 130.63 -17.8 C141.92 -16.55 151.36 -12.28 158.56 -3.37 C166.75 9.57 170.63 24.34 170.8 39.57 C170.81 40.31 170.82 41.06 170.83 41.83 C170.85 44.24 170.86 46.66 170.87 49.07 C170.87 49.89 170.88 50.72 170.88 51.57 C170.9 64.69 169.87 77.21 167.1 90.07 C166.15 94.57 165.36 99.1 164.56 103.63 C165.23 103.8 165.9 103.97 166.59 104.14 C181.39 107.92 195.13 113.4 208.56 120.63 C209.18 120.97 209.81 121.3 210.45 121.64 C227.2 130.61 242.92 142.7 250.5 160.7 C253.22 170.14 253.16 182.62 248.81 191.48 C248.4 192.19 247.98 192.9 247.56 193.63 C247.13 194.37 246.71 195.12 246.27 195.88 C228.97 223.7 195.06 238.29 164.56 246.63 C163.9 246.63 163.24 246.63 162.56 246.63 C162.88 247.86 163.21 249.08 163.55 250.34 C164.97 255.75 166.29 261.18 167.56 266.63 C167.73 267.38 167.91 268.13 168.09 268.9 C173.66 293.85 173.93 324.63 161.6 347.47 C155.06 357.62 146.37 364.01 134.56 366.63 C104.27 368.71 80.94 353.55 58.69 334.3 C52.01 328.39 45.78 322.02 39.56 315.63 C36 318.68 32.44 321.72 28.93 324.82 C27.48 326.09 26.02 327.36 24.56 328.63 C23.17 329.85 23.17 329.85 21.76 331.1 C-0.54 350.54 -25.69 368.1 -56.32 366.81 C-65.55 366.05 -73.32 360.21 -79.35 353.52 C-83.09 348.64 -85.55 343.46 -87.75 337.76 C-88.12 336.82 -88.12 336.82 -88.49 335.87 C-96.35 314.07 -93.74 287.73 -88.44 265.63 C-88.1 264.21 -88.1 264.21 -87.76 262.76 C-86.39 257.03 -84.95 251.33 -83.44 245.63 C-84.39 245.54 -85.34 245.45 -86.32 245.36 C-91.26 244.64 -95.75 242.87 -100.38 241.07 C-101.3 240.71 -102.23 240.36 -103.18 239.99 C-129.45 229.65 -160.55 213.64 -172.82 186.76 C-176.91 177.1 -176.42 167.32 -172.75 157.57 C-165.84 142.07 -153.55 131.49 -139.44 122.63 C-138.43 121.98 -137.43 121.33 -136.39 120.65 C-123.09 112.51 -101.4 100.63 -85.44 100.63 C-85.73 99.64 -85.73 99.64 -86.02 98.63 C-87.93 91.88 -89.4 85.16 -90.57 78.26 C-90.74 77.24 -90.91 76.23 -91.09 75.19 C-92.27 68 -93.24 60.92 -93.44 53.63 C-93.47 52.84 -93.49 52.05 -93.52 51.23 C-94.14 29.96 -92.79 7.79 -77.38 -8.56 C-54.44 -30.22 -22.16 -15.59 0 0 Z " fill="#9DE8FE" transform="translate(668.44140625,408.3671875)"/>
<path d="M0 0 C1.73 1.2 3.44 2.43 5.12 3.69 C5.88 4.2 6.64 4.72 7.41 5.25 C15.79 11.65 20.26 21.56 25.12 30.69 C26.03 32.31 26.03 32.31 26.95 33.96 C28.22 36.91 28.33 38.47 28.06 41.62 C27.86 48.02 28.95 53.94 30.12 60.19 C32.33 72.17 33.45 82.05 29.12 93.69 C29.79 93.87 30.44 94.06 31.12 94.25 C38.68 97.87 42.8 103.42 47 110.44 C54.5 122.92 64.61 134.5 78.12 140.69 C78.54 139.37 78.54 139.37 78.97 138.03 C80.03 134.97 81.23 132.1 82.59 129.17 C83.06 128.15 83.53 127.12 84.02 126.07 C84.51 125.01 85 123.96 85.5 122.88 C86.47 120.79 87.43 118.7 88.4 116.61 C88.86 115.61 89.32 114.61 89.8 113.58 C91.61 109.63 93.38 105.67 95.12 101.69 C95.5 102.2 95.87 102.72 96.25 103.25 C101.45 110.57 101.45 110.57 109.12 114.69 C109.79 113.7 110.44 112.71 111.12 111.69 C113.46 115.19 113.28 116.09 112.86 120.15 C112.75 121.22 112.63 122.29 112.52 123.4 C109.29 150.24 104 175.37 83.25 194.31 C78.41 196.44 74.32 196.67 69.12 195.69 C56.63 190.55 45 180.09 35.8 170.37 C34.22 168.6 34.22 168.6 32.12 167.69 C32.08 168.63 32.03 169.57 31.98 170.55 C31.62 176.68 31.23 182.65 30.06 188.69 C28.7 196.14 27.7 205.41 30.12 212.69 C30.08 214.07 30.01 215.45 29.91 216.84 C29.85 223.85 31.95 230.3 33.88 236.96 C35.07 241.07 36.2 245.19 37.33 249.31 C37.57 250.16 37.8 251.02 38.04 251.9 C49.87 295.37 57.51 340.04 63.12 384.69 C63.23 385.53 63.34 386.38 63.45 387.25 C64.15 392.87 64.84 398.5 65.5 404.12 C65.59 404.84 65.67 405.55 65.76 406.29 C66.77 414.78 67.36 423.13 67.12 431.69 C64.15 432.68 61.19 433.67 58.12 434.69 C59.34 437.55 60.57 440.4 61.81 443.25 C62.15 444.05 62.49 444.85 62.84 445.67 C65.84 452.54 68.99 458.89 75.62 462.88 C78.13 464.4 80.17 465.73 82.27 467.8 C87.05 470.96 92.4 470.55 98 470.82 C104.57 471.27 104.57 471.27 107.18 473.25 C108.12 475.69 108.12 475.69 109.12 483.69 C86.36 483.69 63.58 483.69 40.12 483.69 C39.8 474.78 39.46 465.87 39.12 456.69 C37.14 452.73 35.17 448.77 33.12 444.69 C32.8 443.7 32.46 442.71 32.12 441.69 C30.91 441.9 29.7 442.12 28.46 442.34 C-10.45 448.56 -50.64 445.12 -88.88 436.69 C-89.14 437.57 -89.41 438.44 -89.68 439.35 C-90.83 442.57 -92.24 445.2 -94 448.12 C-96.85 453.23 -97.82 456.89 -96.38 462.69 C-95.63 465.68 -95.85 468.62 -95.88 471.69 C-94.92 471.72 -93.97 471.76 -92.99 471.8 C-91.73 471.87 -90.48 471.93 -89.19 472 C-87.95 472.06 -86.7 472.12 -85.43 472.18 C-79.48 473.03 -79.48 473.03 -76.88 475.69 C-76.45 479.06 -76.59 482.31 -76.88 485.69 C-81.31 485.75 -85.75 485.78 -90.19 485.81 C-91.43 485.83 -92.67 485.85 -93.96 485.86 C-112.35 485.96 -112.35 485.96 -119.22 481.53 C-122.26 478.27 -124.84 474.95 -127.31 471.25 C-127.77 470.61 -128.23 469.96 -128.7 469.3 C-130.78 466.21 -131.85 464.34 -132 460.56 C-130.57 456.9 -128.32 454.73 -125.44 452.19 C-119.31 446.75 -117.68 441.77 -116.88 433.69 C-116.8 430.35 -116.81 427.02 -116.88 423.69 C-117.86 423.15 -118.84 422.62 -119.85 422.07 C-129.53 416.74 -138.77 410.95 -147.88 404.69 C-146.33 401.04 -144.1 398.65 -141.38 395.81 C-133.45 387.25 -126.87 377.68 -120.88 367.69 C-127.01 366.04 -132.99 365.45 -139.31 365.38 C-140.36 365.35 -140.36 365.35 -141.43 365.32 C-145.31 365.24 -145.31 365.24 -148.52 367.16 C-149.19 367.92 -149.19 367.92 -149.88 368.69 C-152.36 369.2 -152.36 369.2 -155.06 369.38 C-155.91 369.43 -156.76 369.49 -157.64 369.54 C-158.38 369.59 -159.11 369.64 -159.88 369.69 C-159.96 370.69 -159.96 370.69 -160.06 371.72 C-160.64 378.24 -161.27 384.74 -161.93 391.25 C-162.02 392.23 -162.12 393.21 -162.23 394.21 C-162.54 397.37 -162.87 400.53 -163.19 403.69 C-163.3 404.77 -163.41 405.85 -163.52 406.97 C-164.96 421.07 -166.44 435.17 -168.06 449.25 C-168.14 449.93 -168.22 450.62 -168.3 451.32 C-168.81 455.78 -169.34 460.23 -169.88 464.69 C-169.96 465.4 -170.04 466.11 -170.13 466.84 C-170.39 469.03 -170.66 471.21 -170.93 473.4 C-171.08 474.7 -171.24 476 -171.4 477.34 C-171.88 480.69 -171.88 480.69 -172.88 484.69 C-176.84 484.69 -180.8 484.69 -184.88 484.69 C-184.02 473.69 -182.86 462.72 -181.69 451.75 C-181.58 450.75 -181.48 449.76 -181.37 448.73 C-178.66 423.37 -175.78 398.03 -172.88 372.69 C-173.87 373.02 -174.85 373.35 -175.88 373.69 C-185.73 375.43 -192.59 371.23 -200.93 366.71 C-209.22 362.37 -216.83 359.73 -226.12 359.12 C-227.39 359.04 -228.65 358.96 -229.95 358.87 C-230.92 358.81 -231.88 358.75 -232.88 358.69 C-229.63 356.07 -226.22 354.26 -222.5 352.38 C-205.45 343.47 -188.99 332.59 -173.88 320.69 C-173.31 320.34 -172.74 319.98 -172.15 319.62 C-169 317.43 -167.2 315.71 -166.02 312 C-165.45 308.6 -165.1 305.24 -164.8 301.8 C-164.67 300.53 -164.53 299.26 -164.39 297.95 C-164.03 294.53 -163.71 291.11 -163.39 287.68 C-163.05 284.15 -162.68 280.62 -162.32 277.09 C-161.74 271.52 -161.18 265.94 -160.63 260.36 C-159.75 251.34 -158.77 242.33 -157.75 233.32 C-157.51 231.11 -157.27 228.9 -157.03 226.69 C-156.89 225.4 -156.75 224.11 -156.6 222.77 C-156.48 221.68 -156.37 220.59 -156.24 219.46 C-155.88 216.69 -155.88 216.69 -154.88 212.69 C-149.43 213.68 -149.43 213.68 -143.88 214.69 C-143.67 224.94 -144.22 234.86 -145.41 245.05 C-145.56 246.45 -145.72 247.86 -145.88 249.27 C-146.28 252.91 -146.7 256.56 -147.12 260.21 C-147.71 265.39 -148.29 270.56 -148.87 275.74 C-149.18 278.48 -149.49 281.23 -149.81 283.97 C-149.95 285.21 -150.09 286.44 -150.23 287.71 C-150.36 288.8 -150.48 289.88 -150.61 291 C-150.92 293.73 -150.92 293.73 -150.88 296.69 C-123.78 262.76 -108.46 224.51 -94.88 183.69 C-95.21 183.36 -95.53 183.03 -95.88 182.69 C-96.34 183.07 -96.8 183.45 -97.28 183.85 C-105.76 190.85 -114.25 197.85 -122.88 204.69 C-124.15 205.75 -124.15 205.75 -125.46 206.84 C-128.41 209.1 -130.17 209.61 -133.88 209.69 C-137.25 208.25 -137.25 208.25 -139.88 206.69 C-138.46 201.86 -136.45 197.97 -133.88 193.69 C-134.28 193.07 -134.69 192.46 -135.12 191.82 C-138.5 186.76 -138.5 186.76 -141.88 181.69 C-144.08 181.32 -144.08 181.32 -146.5 181.5 C-147.32 181.53 -148.13 181.55 -148.98 181.58 C-149.6 181.62 -150.23 181.65 -150.88 181.69 C-150.45 168.49 -148.32 155.64 -145.88 142.69 C-145.74 141.94 -145.6 141.2 -145.46 140.43 C-142.28 123.91 -134.71 108.43 -127.44 93.38 C-122.26 82.55 -117.94 70.47 -121.57 58.38 C-123.71 54.21 -126.82 51.88 -130.88 49.69 C-138.62 47.29 -146.6 48.34 -153.88 51.69 C-157.59 53.95 -159.82 56.31 -161.37 60.44 C-163.07 67.96 -162.77 75.65 -159.23 82.55 C-157.13 85.86 -154.76 88.92 -152.27 91.94 C-150.88 93.69 -150.88 93.69 -150.88 94.69 C-156.5 95.09 -161.45 95.36 -166.28 92.15 C-172.48 86.48 -175.35 79.35 -176.28 71.11 C-176.54 60.8 -174.74 54.08 -167.79 46.38 C-158.59 37.59 -149.14 35.26 -136.71 35.48 C-128.07 35.95 -121.08 38.54 -114.88 44.69 C-106.82 54.96 -106.97 66.2 -107.88 78.69 C-109.12 87.13 -113.11 94.1 -117.12 101.5 C-129.26 123.9 -134.65 148.83 -137.52 173.99 C-137.88 176.69 -137.88 176.69 -138.88 179.69 C-120.35 161.74 -106.96 139.81 -94.25 117.56 C-93.65 116.52 -93.04 115.48 -92.42 114.4 C-89.47 109.16 -87.19 104.55 -86.36 98.56 C-85.56 95.49 -83.67 93.89 -81.19 92.04 C-73.58 87.61 -65.64 85.13 -56.88 84.69 C-57.31 84.04 -57.74 83.38 -58.19 82.71 C-58.74 81.84 -59.3 80.96 -59.88 80.06 C-60.43 79.2 -60.99 78.35 -61.56 77.46 C-63.14 74.14 -63.39 72.33 -62.88 68.69 C-61.64 66.3 -60.43 64.21 -58.94 62 C-54.82 55.74 -52.76 51.16 -54.32 43.48 C-54.6 42.34 -54.6 42.34 -54.88 41.19 C-56.16 35.83 -56.32 31.03 -54.88 25.69 C-60.84 23.85 -66.81 22.15 -72.88 20.69 C-69.27 10.61 -61.53 1.24 -52.07 -3.81 C-34.83 -11.87 -16.2 -9.79 0 0 Z " fill="#3A384C" transform="translate(351.875,397.3125)"/>
<path d="M0 0 C0.71 0.26 1.42 0.52 2.15 0.79 C46.1 17.37 88 39.41 125.56 67.69 C126.14 68.12 126.72 68.55 127.31 68.99 C146.52 83.35 164.08 99.16 181.06 116.06 C181.9 116.89 182.74 117.73 183.6 118.58 C221.04 156.12 249.9 203.61 273.56 250.69 C274.25 252.05 274.25 252.05 274.96 253.43 C295.94 294.92 308.83 340.36 318.87 385.56 C319.58 388.77 320.31 391.97 321.04 395.17 C321.51 397.24 321.97 399.31 322.44 401.38 C322.76 402.78 322.76 402.78 323.09 404.22 C324.18 409.16 324.8 413.62 324.56 418.69 C322.19 416.32 322.04 415.11 321.31 411.88 C314.3 382.65 303.86 354.49 292.56 326.69 C292.14 325.64 291.72 324.58 291.28 323.5 C285.67 309.62 279.47 296.09 272.94 282.62 C272.59 281.9 272.24 281.18 271.88 280.44 C264.82 265.92 257.47 251.55 249.19 237.69 C248.36 236.3 248.36 236.3 247.52 234.88 C242.41 226.34 237.09 217.96 231.56 209.69 C230.8 208.54 230.8 208.54 230.02 207.37 C219.89 192.27 209.28 177.6 197.56 163.69 C197.13 163.17 196.69 162.64 196.24 162.1 C185.61 149.43 174.35 137.41 162.69 125.69 C162 124.99 161.31 124.3 160.6 123.58 C156.08 119.08 151.39 114.85 146.56 110.69 C145.49 109.74 144.42 108.79 143.35 107.84 C110.21 78.62 66.07 49.67 23.56 36.69 C24.31 37.41 24.31 37.41 25.07 38.16 C29.8 42.82 34.26 47.63 38.56 52.69 C39.41 53.68 40.26 54.67 41.13 55.7 C47.03 62.62 52.84 69.61 58.56 76.69 C59.01 77.24 59.46 77.8 59.92 78.37 C67.71 87.97 75.23 97.74 82.56 107.69 C83.08 108.39 83.6 109.09 84.13 109.81 C93 121.84 101.4 134.16 109.56 146.69 C110.07 147.47 110.58 148.25 111.1 149.05 C127.1 173.66 141.59 199.19 153.39 226.07 C154.72 229.03 156.1 231.97 157.49 234.91 C160.67 241.78 163.41 248.78 166.06 255.88 C166.3 256.51 166.54 257.14 166.79 257.8 C184.13 304.01 195.51 352.18 196.56 401.69 C196.23 401.69 195.9 401.69 195.56 401.69 C195.41 400.69 195.41 400.69 195.25 399.67 C191.93 378.98 187.1 358.88 181.56 338.69 C181.28 337.66 181.28 337.66 180.99 336.61 C161.42 265.29 130.69 196.52 88.11 135.89 C86.61 133.76 85.13 131.61 83.64 129.47 C75.64 117.94 67.14 106.8 58.56 95.69 C58.03 94.99 57.49 94.29 56.94 93.57 C50.82 85.59 44.4 78.06 37.56 70.69 C36.24 69.21 34.93 67.74 33.62 66.25 C33.1 65.65 32.58 65.06 32.04 64.44 C30.47 62.58 29.01 60.65 27.56 58.69 C27.98 59.93 28.39 61.17 28.82 62.45 C29.4 64.2 29.98 65.94 30.56 67.69 C30.87 68.59 31.17 69.5 31.48 70.44 C36.22 84.72 40.49 98.95 43.56 113.69 C43.74 114.54 43.92 115.4 44.11 116.28 C49.15 140.74 51.08 165.28 50.95 190.23 C50.94 194.08 50.95 197.94 50.97 201.79 C51 231.71 46.46 258.33 32.89 285.1 C32.18 286.51 31.46 287.93 30.75 289.34 C30.21 290.42 30.21 290.42 29.66 291.52 C27.9 295.01 26.16 298.52 24.41 302.02 C23.01 304.85 21.6 307.67 20.19 310.5 C19.82 311.24 19.45 311.98 19.07 312.75 C14.85 321.2 10.6 329.62 6.12 337.94 C1.57 346.43 -2.39 355.16 -6.31 363.96 C-11.43 375.39 -11.43 375.39 -16.44 378.69 C-21.76 380.39 -28.2 380.74 -33.54 379 C-37.83 376.73 -40.92 373.81 -43.44 369.69 C-47.48 351.88 -30.1 328.7 -21.5 314.19 C-21.11 313.52 -20.72 312.86 -20.32 312.18 C-17.93 308.12 -15.45 304.13 -12.93 300.16 C-5.92 288.88 -1.61 280.55 -3.17 267.21 C-3.6 263.15 -3.75 259.07 -3.92 254.99 C-4.01 252.82 -4.12 250.65 -4.25 248.48 C-4.31 247.5 -4.36 246.51 -4.41 245.5 C-4.47 244.62 -4.52 243.74 -4.57 242.83 C-4.44 240.69 -4.44 240.69 -2.44 238.69 C-1.91 239.72 -1.38 240.76 -0.83 241.83 C-0.11 243.2 0.6 244.57 1.31 245.94 C1.66 246.62 2.01 247.3 2.37 248 C4.36 251.81 6.27 254.81 9.56 257.69 C10.24 255.68 10.92 253.67 11.58 251.66 C12.27 249.57 12.98 247.48 13.7 245.41 C19.2 228.88 23.31 211.15 23.56 193.69 C23.59 192.44 23.59 192.44 23.62 191.17 C24.66 142.1 18.13 72.16 -16.44 34 C-19.29 31.3 -20.25 30.72 -24.25 29.94 C-27.41 30.41 -27.41 30.41 -29.19 32.25 C-30.77 35.34 -32.14 38.46 -33.44 41.69 C-37.63 34.14 -37.46 24.77 -35.38 16.56 C-32.43 7.98 -27.29 2.51 -19.26 -1.54 C-12.57 -3.38 -6.42 -2.47 0 0 Z " fill="#39384D" transform="translate(1086.4375,115.3125)"/>
<path d="M0 0 C0.33 0.66 0.66 1.32 1 2 C1.58 2.24 2.15 2.48 2.75 2.73 C6 4.56 7.82 7.37 10 10.31 C13.87 15.38 17.86 20.25 22.19 24.94 C22.65 25.44 23.11 25.95 23.59 26.47 C35.92 39.69 51.07 50.58 67 59 C68.25 59.68 69.51 60.36 70.76 61.04 C73.83 62.71 76.91 64.36 80 66 C79.49 71.37 78.1 75.63 75.62 80.44 C75.1 81.47 75.1 81.47 74.56 82.52 C67.65 95.71 58.38 107.5 49 119 C48.19 120 47.38 120.99 46.55 122.02 C35.59 135.16 23.2 146.99 11.06 159.02 C6.27 163.77 1.48 168.52 -3.3 173.28 C-4.96 174.93 -6.63 176.58 -8.29 178.23 C-9.3 179.23 -10.31 180.23 -11.32 181.24 C-12.2 182.11 -13.08 182.99 -13.99 183.89 C-16.88 186.92 -17.14 188.54 -17.12 192.62 C-17.12 193.52 -17.12 194.42 -17.12 195.35 C-17.01 197.7 -16.65 199.72 -16.12 202 C-15.41 206.74 -17.86 209.94 -20.36 213.8 C-24.12 218.85 -24.12 218.85 -27.27 219.4 C-28.61 219.42 -28.61 219.42 -29.97 219.44 C-30.98 219.45 -31.99 219.47 -33.04 219.49 C-34.13 219.5 -35.22 219.5 -36.35 219.5 C-37.48 219.51 -38.61 219.52 -39.77 219.53 C-42.16 219.55 -44.56 219.56 -46.95 219.56 C-50.59 219.56 -54.23 219.62 -57.87 219.67 C-60.2 219.68 -62.52 219.69 -64.85 219.69 C-65.93 219.71 -67.01 219.73 -68.13 219.76 C-75.8 219.69 -80.06 217.74 -86 213 C-91.53 209.71 -96.41 206.82 -103 208 C-109.08 210.36 -114.19 213.62 -119.11 217.86 C-121.52 219.31 -123.24 219.2 -126 219 C-126.47 211.67 -125.1 206.63 -122 200 C-129.72 203.38 -135.81 207.13 -141.84 213.05 C-143.84 214.86 -145.54 215.95 -148 217 C-149.07 203.31 -143.24 192.64 -134.59 182.32 C-115.28 160.13 -115.28 160.13 -102.7 157.52 C-98.22 157.34 -95.69 158.73 -92 161 C-90.87 161 -89.73 161 -88.56 161 C-84.35 161 -82.51 161.69 -79 164 C-77.33 165.76 -75.8 167.57 -74.3 169.48 C-73.06 171.13 -73.06 171.13 -71 172 C-70.72 171.42 -70.45 170.83 -70.16 170.23 C-69.05 168.1 -67.83 166.25 -66.42 164.3 C-65.9 163.6 -65.39 162.89 -64.86 162.16 C-64.31 161.41 -63.76 160.65 -63.19 159.88 C-62 158.25 -60.82 156.62 -59.64 154.99 C-59.03 154.16 -58.43 153.33 -57.8 152.48 C-55.02 148.66 -52.26 144.83 -49.5 141 C-48.42 139.5 -47.33 138 -46.25 136.5 C-45.71 135.76 -45.18 135.01 -44.62 134.25 C-39.75 127.5 -39.75 127.5 -38.12 125.25 C-37.04 123.75 -35.96 122.25 -34.88 120.76 C-31.59 116.19 -28.28 111.64 -24.97 107.1 C-23.33 104.84 -21.72 102.57 -20.1 100.29 C-18.14 97.53 -16.1 94.87 -13.96 92.24 C-6.15 82.29 -5.56 73.4 -7 61 C-7.17 60.07 -7.35 59.13 -7.52 58.17 C-9.49 45.12 -8.86 30.84 -6.25 17.94 C-6.01 16.77 -6.01 16.77 -5.77 15.58 C-4.52 10.06 -2.45 5.09 0 0 Z " fill="#39384D" transform="translate(946,662)"/>
<path d="M0 0 C9.18 6.68 17.5 14.41 25.82 22.11 C32.4 28.24 32.4 28.24 39.56 33.63 C40.33 32.85 41.11 32.06 41.9 31.25 C47.61 25.49 53.34 19.86 59.56 14.63 C60.43 13.88 61.29 13.12 62.19 12.34 C81.09 -3.9 104.72 -19.09 130.63 -17.8 C141.92 -16.55 151.36 -12.28 158.56 -3.37 C166.75 9.57 170.63 24.34 170.8 39.57 C170.81 40.31 170.82 41.06 170.83 41.83 C170.85 44.24 170.86 46.66 170.87 49.07 C170.87 49.89 170.88 50.72 170.88 51.57 C170.9 64.69 169.87 77.21 167.1 90.07 C166.15 94.57 165.36 99.1 164.56 103.63 C165.23 103.8 165.9 103.97 166.59 104.14 C181.39 107.92 195.13 113.4 208.56 120.63 C209.18 120.97 209.81 121.3 210.45 121.64 C227.2 130.61 242.92 142.7 250.5 160.7 C253.22 170.14 253.16 182.62 248.81 191.48 C248.4 192.19 247.98 192.9 247.56 193.63 C247.13 194.37 246.71 195.12 246.27 195.88 C228.97 223.7 195.06 238.29 164.56 246.63 C163.9 246.63 163.24 246.63 162.56 246.63 C162.56 248.28 162.56 249.93 162.56 251.63 C161.57 251.3 160.58 250.97 159.56 250.63 C160.18 248.26 160.18 248.26 161.56 245.63 C163.54 244.91 165.54 244.23 167.56 243.63 C167.89 242.64 168.22 241.65 168.56 240.63 C166.25 241.29 163.94 241.95 161.56 242.63 C160.57 240.98 159.58 239.33 158.56 237.63 C159.55 236.85 160.54 236.07 161.56 235.26 C163.04 233.96 163.04 233.96 164.56 232.63 C164.56 231.97 164.56 231.31 164.56 230.63 C165.23 230.38 165.9 230.12 166.58 229.86 C206.35 214.97 206.35 214.97 234.56 184.63 C236.92 177.54 236.71 169.03 233.5 162.26 C219.79 138.93 189.62 127.44 164.85 120.16 C162.46 119.52 162.46 119.52 159.56 119.63 C159.37 120.24 159.18 120.85 158.98 121.47 C153.19 139.81 146.3 157.48 137.56 174.63 C136.56 171.63 136.56 171.63 137.21 169.72 C137.56 169.01 137.92 168.3 138.29 167.57 C138.68 166.78 139.07 165.99 139.47 165.17 C139.89 164.33 140.31 163.5 140.75 162.63 C144.12 155.76 147.21 148.94 149.56 141.63 C147.51 142.14 145.47 142.66 143.43 143.2 C141.56 143.63 141.56 143.63 139.56 143.63 C139.56 144.29 139.56 144.95 139.56 145.63 C138.9 145.63 138.24 145.63 137.56 145.63 C137.56 146.29 137.56 146.95 137.56 147.63 C136.24 147.96 134.92 148.29 133.56 148.63 C134.28 144.47 135.5 140.59 136.84 136.58 C137.06 135.92 137.28 135.26 137.51 134.59 C138.21 132.5 138.92 130.41 139.62 128.32 C140.1 126.9 140.58 125.48 141.05 124.05 C142.22 120.58 143.39 117.11 144.56 113.63 C143.44 113.51 142.32 113.38 141.17 113.25 C136.33 112.65 131.58 111.71 126.81 110.76 C118.59 109.14 110.36 107.79 102.04 106.76 C97.55 106.15 94.32 105.37 90.56 102.63 C90.87 100.26 90.87 100.26 91.56 97.63 C92.55 96.97 93.54 96.31 94.56 95.63 C94.89 96.29 95.22 96.95 95.56 97.63 C96.22 97.3 96.88 96.97 97.56 96.63 C98.21 94.11 98.21 94.11 98.56 91.63 C97.24 91.3 95.92 90.97 94.56 90.63 C104.36 90.08 113.59 91.78 123.18 93.51 C124.74 93.78 126.3 94.05 127.86 94.32 C135.13 95.6 142.37 96.94 149.56 98.63 C150.02 95.69 150.48 92.74 150.91 89.8 C151.35 86.93 151.84 84.07 152.36 81.22 C155.98 60.4 157.74 35.82 150.56 15.63 C150.13 14.38 150.13 14.38 149.68 13.09 C147.44 7.74 143.37 3.8 138.56 0.63 C128.45 -3.48 118.37 -2 108.52 1.95 C90.63 9.58 75.64 21.42 61.56 34.63 C60.11 35.91 58.65 37.18 57.18 38.45 C54.92 40.4 52.88 42.34 50.81 44.51 C48.61 46.59 47.52 47.3 44.56 47.63 C44.23 46.97 43.9 46.31 43.56 45.63 C41.08 46.13 41.08 46.13 38.56 46.63 C38.41 47.77 38.27 48.9 38.12 50.07 C37.56 53.63 37.56 53.63 36.56 54.63 C37.7 55 37.7 55 38.87 55.38 C41.84 56.76 42.7 58.02 44.56 60.63 C45.55 60.96 46.54 61.29 47.56 61.63 C49.31 64.57 49.31 64.57 50.56 67.63 C50.23 68.29 49.9 68.95 49.56 69.63 C46.26 65.67 42.96 61.71 39.56 57.63 C32.59 64.6 26.09 71.79 20.06 79.57 C19.41 80.4 19.41 80.4 18.75 81.25 C16.87 83.71 15.55 85.67 14.56 88.63 C13.9 88.63 13.24 88.63 12.56 88.63 C12.56 89.29 12.56 89.95 12.56 90.63 C13.55 89.97 14.54 89.31 15.56 88.63 C17.82 88.44 17.82 88.44 20.25 88.51 C21.05 88.53 21.86 88.54 22.7 88.56 C23.31 88.59 23.93 88.61 24.56 88.63 C23.57 89.13 23.57 89.13 22.56 89.63 C24.04 90.13 24.04 90.13 25.56 90.63 C25.06 92.12 25.06 92.12 24.56 93.63 C22.91 93.63 21.26 93.63 19.56 93.63 C19.56 94.95 19.56 96.27 19.56 97.63 C21.54 98.13 21.54 98.13 23.56 98.63 C24.05 97.15 24.05 97.15 24.56 95.63 C25.55 97.12 25.55 97.12 26.56 98.63 C29.46 99.24 29.46 99.24 32.88 99.36 C34.76 99.48 34.76 99.48 36.69 99.61 C38.02 99.68 39.35 99.75 40.68 99.82 C42.02 99.9 43.36 99.98 44.7 100.07 C47.99 100.27 51.27 100.46 54.56 100.63 C54.56 100.96 54.56 101.29 54.56 101.63 C53.95 101.6 53.34 101.57 52.72 101.54 C46.32 101.22 39.94 101.05 33.54 100.96 C31.16 100.91 28.78 100.82 26.4 100.7 C13 99.65 13 99.65 1.09 104.63 C-3.18 109.43 -6.38 114.75 -9.23 120.48 C-10.42 122.6 -11.65 124.02 -13.44 125.63 C-13.77 123.65 -14.1 121.67 -14.44 119.63 C-15.43 119.63 -16.42 119.63 -17.44 119.63 C-17.11 118.97 -16.78 118.31 -16.44 117.63 C-16.77 116.64 -17.1 115.65 -17.44 114.63 C-18.1 114.3 -18.76 113.97 -19.44 113.63 C-19.77 114.29 -20.1 114.95 -20.44 115.63 C-21.43 115.3 -22.42 114.97 -23.44 114.63 C-21.13 111 -18.82 107.37 -16.44 103.63 C-17.6 103.81 -18.75 104 -19.94 104.18 C-24.24 104.86 -28.53 105.53 -32.83 106.2 C-34.69 106.49 -36.54 106.78 -38.4 107.07 C-41.07 107.49 -43.75 107.91 -46.42 108.32 C-47.25 108.45 -48.08 108.58 -48.93 108.72 C-52.8 109.31 -56.51 109.8 -60.44 109.63 C-59.78 109.3 -59.12 108.97 -58.44 108.63 C-58.44 107.64 -58.44 106.65 -58.44 105.63 C-57.78 105.63 -57.12 105.63 -56.44 105.63 C-56.44 104.97 -56.44 104.31 -56.44 103.63 C-55.78 103.63 -55.12 103.63 -54.44 103.63 C-54.44 102.31 -54.44 100.99 -54.44 99.63 C-60.09 97.19 -65.42 97.44 -71.44 97.63 C-68.07 95.38 -65.17 94.87 -61.26 94.23 C-60.54 94.11 -59.82 93.99 -59.08 93.86 C-57.53 93.6 -55.98 93.35 -54.43 93.09 C-51.99 92.69 -49.55 92.27 -47.11 91.85 C-39.5 90.56 -32.04 89.49 -24.32 89.24 C-10.97 89.23 -10.97 89.23 0.01 82.68 C3.16 78.71 5.69 74.45 8.15 70.02 C10.21 66.53 12.74 63.58 15.43 60.57 C19.95 55.37 24.29 50.05 28.56 44.63 C27.98 44.39 27.41 44.14 26.81 43.89 C24.2 42.43 22.55 40.75 20.5 38.57 C16.35 34.33 11.99 30.58 7.36 26.88 C5.54 25.42 3.73 23.93 1.94 22.42 C-9.52 12.74 -21.28 4.79 -35.44 -0.37 C-36.15 -0.63 -36.87 -0.9 -37.6 -1.17 C-44.99 -3.46 -54.79 -3.97 -61.94 -0.87 C-70.54 4.44 -73.17 13.26 -75.44 22.63 C-76.79 29.63 -76.68 36.6 -76.69 43.7 C-76.69 44.41 -76.7 45.12 -76.7 45.85 C-76.71 57.29 -75.78 68.3 -73.78 79.57 C-73.07 83.89 -72.74 88.26 -72.44 92.63 C-74.42 93.13 -74.42 93.13 -76.44 93.63 C-76.54 94.27 -76.65 94.91 -76.75 95.57 C-76.98 96.25 -77.21 96.93 -77.44 97.63 C-78.93 98.13 -78.93 98.13 -80.44 98.63 C-80.77 97.64 -81.1 96.65 -81.44 95.63 C-82.1 95.3 -82.76 94.97 -83.44 94.63 C-83.44 96.94 -83.44 99.25 -83.44 101.63 C-84.1 101.63 -84.76 101.63 -85.44 101.63 C-93.22 68.63 -101.63 28.72 -82.69 -2.12 C-76.75 -10.48 -69.09 -16.52 -59.04 -18.95 C-37.73 -22.4 -16.98 -11.95 0 0 Z " fill="#5BD8FE" transform="translate(668.44140625,408.3671875)"/>
<path d="M0 0 C6.17 1.52 12.32 2.95 18.56 4.12 C24.34 5.25 30.01 6.64 35.69 8.19 C36.47 8.4 37.26 8.61 38.06 8.82 C43.63 10.38 43.63 10.38 45.88 12.62 C44.81 12.86 43.75 13.09 42.66 13.32 C33.92 15.31 26.44 17.06 19.88 23.62 C19.95 27.16 20.38 29.04 22.69 31.75 C35.04 39.01 49.81 39.8 63.75 40.94 C76.45 42.03 88.59 44.16 100.88 47.62 C96.86 50.3 92.47 51.66 87.94 53.24 C83.43 54.87 79.66 56.65 75.88 59.62 C74.96 62.62 74.96 62.62 75.88 65.62 C86.93 75.79 103.97 76.73 118.12 79.12 C142.53 83.28 142.53 83.28 152.67 86.22 C153.35 86.41 154.04 86.61 154.74 86.81 C158.3 87.91 161.06 89.17 163.88 91.62 C162.62 91.87 161.36 92.11 160.07 92.36 C144.54 94.56 144.54 94.56 131.88 102.62 C131.27 106.74 131.3 108.8 133.69 112.25 C142.21 118.6 152.42 121.1 162.52 123.82 C178.92 128.25 195.18 132.89 209.88 141.62 C209.88 141.96 209.88 142.28 209.88 142.62 C208.84 142.66 207.8 142.7 206.73 142.74 C193.95 142.68 193.95 142.68 182.88 147.62 C182.51 150.92 182.38 152.89 184.25 155.69 C191.68 161.17 200.48 164.04 209.12 167 C226.14 173 241.47 180.08 253.88 193.62 C251.25 194.94 250.2 194.37 247.38 193.69 C242.15 192.55 237.21 192.42 231.88 192.62 C232.64 197.28 233.47 199.72 237.3 202.58 C238.73 203.55 240.17 204.5 241.62 205.44 C243.17 206.48 244.72 207.53 246.27 208.57 C247.05 209.08 247.82 209.6 248.62 210.13 C257.95 216.33 266.75 222.88 274.88 230.62 C275.77 231.41 275.77 231.41 276.69 232.21 C288.15 242.66 297.24 258.85 298.08 274.41 C298.46 294.88 292 309.93 277.79 324.81 C271.6 330.71 264.37 334.65 256.88 338.62 C256.14 339.05 255.4 339.48 254.64 339.91 C252.88 340.62 252.88 340.62 249.88 339.62 C250.47 339.37 251.06 339.11 251.67 338.84 C263.45 332.35 270.35 315.06 273.99 302.9 C276.86 290.88 276.11 276.79 270.88 265.62 C270.39 264.52 269.9 263.42 269.4 262.29 C262.36 247.22 252.12 234.26 240.03 222.89 C238.88 221.62 238.88 221.62 238.88 219.62 C238.06 219.3 238.06 219.3 237.22 218.97 C234.07 217.16 231.8 214.67 229.31 212.06 C224.63 207.26 219.77 202.94 214.51 198.76 C211.94 196.68 209.5 194.5 207.06 192.25 C202.02 187.66 196.71 183.5 191.33 179.32 C186.43 175.52 181.66 171.57 176.88 167.62 C175.17 166.23 173.46 164.83 171.75 163.44 C170.34 162.28 168.93 161.13 167.52 159.97 C166.33 159 165.15 158.03 163.96 157.06 C155.82 150.39 147.73 143.69 139.76 136.81 C136.34 133.87 132.88 130.97 129.38 128.12 C120.96 121.28 112.71 114.24 104.69 106.94 C100.55 103.18 96.26 99.65 91.91 96.13 C88.4 93.24 84.99 90.25 81.56 87.25 C74.52 81.11 67.31 75.27 59.88 69.62 C59.15 69.08 58.43 68.53 57.69 67.96 C31.5 48.19 3.57 32.72 -25.8 18.26 C-29.59 16.4 -33.36 14.52 -37.12 12.62 C-33.76 5.65 -28.22 1.38 -21.73 -2.62 C-14.78 -4.63 -6.8 -1.71 0 0 Z " fill="#39384D" transform="translate(1124.125,524.375)"/>
<path d="M0 0 C10.24 7.21 13.29 17.42 15.57 29.24 C16.42 35.19 16.31 41.18 16.34 47.18 C16.34 47.88 16.34 48.58 16.35 49.31 C16.37 65.98 14.29 82.29 10.02 98.43 C2.09 97.7 -5.7 96.29 -13.53 94.9 C-30.47 91.89 -30.47 91.89 -47.56 90.01 C-56.23 89.31 -56.23 89.31 -59.32 85.97 C-60.84 84.06 -62.26 82.1 -63.66 80.11 C-64.72 78.66 -65.79 77.2 -66.85 75.74 C-67.37 75.01 -67.9 74.29 -68.44 73.54 C-70.65 70.5 -72.93 67.52 -75.23 64.55 C-76.03 63.51 -76.83 62.48 -77.65 61.41 C-80.51 57.74 -83.43 54.13 -86.38 50.55 C-87.87 48.57 -88.96 46.67 -89.98 44.43 C-84.17 38.51 -78.35 32.73 -71.98 27.43 C-71.48 27 -70.98 26.58 -70.46 26.14 C-57.4 15.09 -43.25 5.12 -26.98 -0.57 C-25.54 -1.12 -25.54 -1.12 -24.07 -1.67 C-16.4 -3.91 -7.13 -3.86 0 0 Z " fill="#FDFEFE" transform="translate(807.9765625,408.57421875)"/>
<path d="M0 0 C0.88 2.16 0.88 2.16 1.57 5 C1.83 6.03 2.08 7.07 2.35 8.13 C2.6 9.22 2.86 10.31 3.12 11.44 C3.39 12.49 3.65 13.55 3.93 14.64 C6.72 26.15 7.18 37.12 7.19 48.94 C7.2 50.23 7.21 51.52 7.22 52.86 C7.25 67.22 5.66 83.27 -5 94 C-12.6 99.88 -19.26 100.7 -28.64 99.73 C-35.73 98.65 -41.65 96.25 -48 93 C-48.87 92.57 -49.75 92.14 -50.64 91.69 C-66.2 83.65 -80.41 72.05 -92.54 59.47 C-94.87 57.12 -97.42 55.08 -100 53 C-96.44 48.09 -92.69 43.41 -88.75 38.81 C-84.96 34.38 -81.29 29.88 -77.75 25.25 C-77.34 24.71 -76.92 24.17 -76.5 23.62 C-74.64 21.19 -72.82 18.75 -71.07 16.25 C-70.2 15.05 -70.2 15.05 -69.31 13.81 C-68.83 13.12 -68.36 12.42 -67.86 11.71 C-62.56 6.85 -53.42 7.21 -46.65 6.42 C-34.49 5 -22.55 3.13 -10.58 0.49 C-9.62 0.28 -8.66 0.07 -7.67 -0.14 C-6.84 -0.33 -6 -0.52 -5.14 -0.72 C-3 -1 -3 -1 0 0 Z " fill="#FDFEFE" transform="translate(817,660)"/>
<path d="M0 0 C0.41 1.2 0.41 1.2 0.84 2.43 C6.25 18.12 11.83 33.61 18.56 48.8 C19 49.79 19.43 50.79 19.88 51.82 C20.46 53.11 20.46 53.11 21.05 54.42 C22.35 57.96 23.46 61.29 22.46 65.01 C22.15 65.61 21.84 66.21 21.52 66.84 C21.16 67.56 20.81 68.28 20.45 69.02 C20.05 69.79 19.66 70.57 19.25 71.38 C14.74 80.77 11.27 90.39 7.94 100.25 C7.69 100.98 7.44 101.71 7.19 102.46 C5.78 106.64 4.38 110.82 3 115 C-2.56 114.46 -7.55 113.41 -12.81 111.5 C-13.54 111.24 -14.26 110.98 -15.01 110.71 C-37.85 102.23 -66.43 88.27 -78 65.5 C-80.07 58.25 -79.73 51.98 -76.32 45.21 C-68.79 32.55 -57.71 24.08 -45 17 C-43.85 16.35 -42.71 15.71 -41.53 15.04 C-29.87 8.73 -13.33 0 0 0 Z " fill="#FDFEFE" transform="translate(587,524)"/>
<path d="M0 0 C17.46 8.8 32.26 22.47 46.47 35.71 C48.94 37.96 51.49 40.06 54.12 42.12 C52.66 45.45 50.81 47.69 48.31 50.31 C42.99 56.11 38.27 62.31 33.53 68.58 C32.98 69.29 32.44 69.99 31.88 70.71 C30.02 73.19 30.02 73.19 28.26 76.25 C25.29 80.95 23.05 84.42 17.7 86.37 C13.59 87.04 9.59 87.36 5.44 87.56 C3.18 87.73 0.92 87.93 -1.34 88.12 C-2.88 88.26 -4.42 88.38 -5.96 88.5 C-14 89.14 -21.88 90.46 -29.81 91.87 C-32.28 92.31 -34.75 92.74 -37.22 93.17 C-38.24 93.35 -39.27 93.54 -40.32 93.73 C-42.88 94.12 -42.88 94.12 -45.88 94.12 C-46.7 90 -47.51 85.87 -48.31 81.75 C-48.54 80.59 -48.77 79.44 -49.01 78.24 C-53.43 55.59 -57.1 23.6 -44.37 2.96 C-32.98 -11.06 -14.37 -6.71 0 0 Z " fill="#FDFEFE" transform="translate(642.876953125,410.876953125)"/>
<path d="M0 0 C0.81 0.16 1.62 0.32 2.46 0.49 C5.63 1.11 8.79 1.72 11.96 2.33 C13.41 2.61 14.85 2.89 16.29 3.18 C24.31 4.76 32.22 6.14 40.38 6.69 C60.98 8.18 60.98 8.18 66.22 13.64 C68.93 17.17 70.99 20.95 72.93 24.94 C74.43 27.84 76.38 30.21 78.5 32.69 C79.2 33.53 79.91 34.37 80.63 35.23 C85.81 41.29 85.81 41.29 91.02 47.32 C93.17 49.81 95.17 52.25 97 55 C88.6 63.03 80.07 70.64 70.79 77.64 C68.96 79.03 67.15 80.44 65.35 81.85 C50.88 92.99 32.95 103.84 14.02 101.79 C7.99 100.75 3.89 97.64 0 93 C-13.39 71.13 -10.92 42.8 -5.48 18.75 C-3.93 12.42 -1.98 6.21 0 0 Z " fill="#FDFEFE" transform="translate(600,658)"/>
<path d="M0 0 C7.01 0.77 13.59 3.07 20.12 5.62 C21.03 5.98 21.94 6.33 22.88 6.69 C43.34 14.77 66.1 25.62 76.13 46.34 C78.19 52.66 78.31 61.11 75.56 67.25 C72.45 72.39 68.19 76.73 64 81 C63.43 81.6 62.86 82.19 62.27 82.8 C48.29 96.18 17.84 114 -2 114 C-2.25 113.31 -2.49 112.62 -2.74 111.9 C-7.77 97.82 -13.05 84.1 -19.51 70.61 C-19.95 69.68 -20.39 68.75 -20.85 67.79 C-21.44 66.58 -21.44 66.58 -22.04 65.34 C-23.46 61.89 -24.44 59.34 -23.25 55.7 C-22.63 54.52 -22.63 54.52 -22.01 53.32 C-21.55 52.43 -21.1 51.53 -20.63 50.6 C-20.14 49.64 -19.64 48.68 -19.12 47.69 C-14.96 39.33 -11.24 30.94 -8 22.19 C-7.64 21.22 -7.28 20.25 -6.91 19.25 C-4.94 13.85 -3.18 8.42 -1.61 2.89 C-1 1 -1 1 0 0 Z " fill="#FDFEFE" transform="translate(828,527)"/>
<path d="M0 0 C0.66 0 1.32 0 2 0 C7.33 14.22 15.01 34.96 10 50 C9.83 53.58 9.83 53.58 10 57 C10.33 57.33 10.66 57.66 11 58 C10.78 67.57 7.58 76.17 4.5 85.12 C3.95 86.74 3.41 88.35 2.86 89.96 C-3.1 107.49 -9.29 124.94 -16.99 141.79 C-18.15 144.34 -19.29 146.9 -20.42 149.47 C-29.3 169.37 -39.52 188.49 -51 207 C-51.62 206.87 -52.24 206.73 -52.88 206.6 C-60.92 204.99 -68.83 204.42 -77 204 C-77 200.13 -75.7 198.56 -73.69 195.25 C-56.02 165.24 -45.64 131.98 -35.35 98.92 C-29.38 79.73 -22.99 60.74 -16.01 41.89 C-13.29 34.56 -10.66 27.21 -8.12 19.81 C-5.79 13.02 -3.21 6.44 0 0 Z " fill="#532E79" transform="translate(283,558)"/>
<path d="M0 0 C9.8 6.29 15.12 14.16 18.81 25.25 C19.71 38.97 18.41 49.92 9.43 60.95 C2.97 68.14 -6.25 72.81 -15.88 73.52 C-27.9 73.92 -37.78 71.84 -47.38 64.04 C-56.09 55.44 -59.44 46.4 -59.69 34.44 C-59.65 23.32 -56.1 13.28 -48.19 5.25 C-33.71 -7.17 -16.68 -9.41 0 0 Z " fill="#5DD9FE" transform="translate(727.1875,546.75)"/>
<path d="M0 0 C8.66 2.64 14 12.71 19.1 19.64 C20.32 21.28 21.53 22.93 22.75 24.57 C25.72 28.59 28.68 32.62 31.63 36.65 C32.12 37.31 32.6 37.96 33.1 38.64 C33.59 39.37 34.08 40.1 34.58 40.85 C36.98 43.67 39.58 43.42 43.16 43.77 C49.91 44.45 49.91 44.45 52.1 46.64 C52.1 47.63 52.1 48.62 52.1 49.64 C52.76 49.97 53.42 50.3 54.1 50.64 C53.11 51.63 52.12 52.62 51.1 53.64 C49.78 52.98 48.46 52.32 47.1 51.64 C46.44 52.63 45.78 53.62 45.1 54.64 C45.43 55.63 45.76 56.62 46.1 57.64 C47.59 58.14 47.59 58.14 49.1 58.64 C49.1 58.97 49.1 59.3 49.1 59.64 C50.64 59.89 50.64 59.89 52.2 60.14 C56.06 60.77 59.91 61.4 63.77 62.04 C65.43 62.31 67.08 62.58 68.74 62.85 C78.62 64.46 88.38 66.22 98.1 68.64 C97.52 75.39 95.24 81.37 92.91 87.7 C92.51 88.81 92.11 89.92 91.69 91.06 C89.07 98.22 86.27 105.24 83.1 112.16 C81.91 114.66 81.91 114.66 82.1 117.64 C80.3 117.49 80.3 117.49 78.1 116.64 C76.4 114.14 76.4 114.14 74.85 111.08 C74.33 110.07 73.81 109.05 73.27 108.01 C72.89 107.23 72.5 106.45 72.1 105.64 C69.75 106.24 67.42 106.91 65.1 107.64 C64.77 108.3 64.44 108.96 64.1 109.64 C64.76 109.97 65.42 110.3 66.1 110.64 C64.62 111.14 64.62 111.14 63.1 111.64 C64.59 112.63 64.59 112.63 66.1 113.64 C65.61 115.13 65.61 115.13 65.1 116.64 C61.23 115.35 60.76 113.47 58.99 109.97 C58.6 109.16 58.2 108.35 57.79 107.52 C49.88 91.98 40.83 76.98 30.58 62.87 C29.1 60.64 29.1 60.64 29.1 58.64 C18.21 58.15 18.21 58.15 7.1 57.64 C7.1 57.31 7.1 56.98 7.1 56.64 C-6.76 55.65 -6.76 55.65 -20.9 54.64 C-21.39 53.16 -21.39 53.16 -21.9 51.64 C-22.23 52.3 -22.56 52.96 -22.9 53.64 C-24.22 53.31 -25.54 52.98 -26.9 52.64 C-26.9 51.32 -26.9 50 -26.9 48.64 C-26.09 48.52 -25.29 48.39 -24.46 48.27 C-23.62 48.06 -22.77 47.85 -21.9 47.64 C-21.57 46.98 -21.24 46.32 -20.9 45.64 C-22.38 46.14 -22.38 46.14 -23.9 46.64 C-23.9 45.98 -23.9 45.32 -23.9 44.64 C-28.98 44.53 -28.98 44.53 -33.9 45.64 C-33.9 44.98 -33.9 44.32 -33.9 43.64 C-33.24 43.64 -32.58 43.64 -31.9 43.64 C-31.83 43.11 -31.77 42.58 -31.7 42.04 C-30.55 38.59 -28.35 36.06 -26.09 33.27 C-25.6 32.66 -25.12 32.06 -24.63 31.44 C-19.22 24.7 -13.57 18.16 -7.9 11.64 C-5.01 14.49 -2.2 17.35 0.41 20.45 C0.93 21.06 1.44 21.66 1.96 22.29 C2.34 22.73 2.72 23.18 3.1 23.64 C2.61 22.74 2.61 22.74 2.1 21.83 C1.1 19.64 1.1 19.64 1.1 16.64 C0.5 16.56 -0.09 16.48 -0.71 16.39 C-2.9 15.64 -2.9 15.64 -4.34 13.64 C-5.78 11.39 -5.78 11.39 -8.59 10.89 C-9.35 10.81 -10.11 10.73 -10.9 10.64 C-10.64 9.18 -10.37 7.72 -10.09 6.27 C-9.94 5.45 -9.78 4.64 -9.63 3.8 C-8.02 -0.96 -4.35 -0.73 0 0 Z " fill="#5CD9FE" transform="translate(714.8984375,453.359375)"/>
<path d="M0 0 C2.3 3.45 2.64 5.78 3.29 9.86 C3.4 10.52 3.51 11.18 3.62 11.86 C3.96 13.97 4.29 16.08 4.62 18.19 C4.86 19.62 5.09 21.05 5.32 22.48 C5.89 25.99 6.45 29.49 7 33 C7.78 32.21 8.57 31.42 9.38 30.61 C11.45 28.55 13.53 26.59 15.75 24.69 C16.34 24.18 16.94 23.66 17.55 23.14 C19 22 19 22 20 22 C20.13 23.02 20.27 24.05 20.4 25.11 C20.58 26.47 20.76 27.83 20.94 29.19 C21.07 30.2 21.07 30.2 21.2 31.23 C21.68 34.86 22.28 38.4 23 42 C27.95 39.03 27.95 39.03 33 36 C32.93 37.11 32.86 38.22 32.79 39.36 C32.73 40.82 32.68 42.29 32.62 43.75 C32.57 44.48 32.52 45.21 32.47 45.96 C32.34 48.41 32.34 48.41 33 52 C34.98 53.36 36.98 54.7 39 56 C39.9 61.36 38.44 64.98 36.06 69.75 C33.82 74.29 33.82 74.29 32 79 C34.31 79 36.62 79 39 79 C38.39 81.69 37.7 83.49 35.42 85.14 C33.33 86.29 31.21 87.34 29.06 88.38 C27.51 89.15 25.96 89.93 24.41 90.72 C23.66 91.1 22.9 91.48 22.12 91.88 C19.28 93.38 16.61 95.1 13.94 96.88 C6.94 101.42 0.5 104.33 -8 103 C-12.5 101.49 -16.07 99 -19.75 96.06 C-23.89 92.79 -28.32 91.12 -33.27 89.37 C-36.54 87.73 -38 86.05 -40 83 C-40.33 81.68 -40.66 80.36 -41 79 C-38.03 79.66 -35.06 80.32 -32 81 C-33.22 74.32 -33.22 74.32 -36.19 68.31 C-38 65 -38 65 -38 62.06 C-37.16 59.48 -36.2 57.39 -34.94 55 C-33.1 51.47 -32.38 49.04 -33 45 C-34.4 41.7 -34.4 41.7 -36 39 C-32 40.33 -28 41.67 -24 43 C-22.47 36.66 -21.52 30.5 -21 24 C-16.73 25.38 -14.38 27.32 -11.31 30.56 C-8.46 33.7 -8.46 33.7 -5 36 C-4.95 35.36 -4.9 34.72 -4.85 34.06 C-4.24 26.57 -3.17 19.22 -1.94 11.81 C-1.75 10.67 -1.56 9.53 -1.37 8.35 C-0.92 5.57 -0.46 2.78 0 0 Z " fill="#C893FD" transform="translate(457,366)"/>
<path d="M0 0 C0.66 0 1.32 0 2 0 C6.31 9.89 10.42 19.82 14 30 C14.45 31.28 14.45 31.28 14.92 32.59 C15.19 33.38 15.47 34.18 15.75 35 C15.99 35.7 16.23 36.4 16.48 37.12 C17 39 17 39 17 42 C2.14 45.65 -12.85 47.9 -28 50 C-25.36 50.33 -22.72 50.66 -20 51 C-20.36 51.47 -20.72 51.94 -21.09 52.43 C-21.79 53.36 -21.79 53.36 -22.5 54.31 C-22.96 54.93 -23.43 55.54 -23.91 56.18 C-25.26 58.07 -25.26 58.07 -25 61 C-27.31 63.31 -28.48 63.5 -31.62 64.12 C-32.44 64.29 -33.26 64.46 -34.1 64.63 C-35.04 64.81 -35.04 64.81 -36 65 C-36 65.33 -36 65.66 -36 66 C-37.02 66.16 -38.04 66.32 -39.09 66.49 C-44.28 67.99 -46.59 71.89 -49.62 76.12 C-50.84 77.76 -52.07 79.4 -53.29 81.03 C-53.9 81.86 -54.52 82.69 -55.15 83.54 C-58 87.32 -60.99 90.97 -64 94.62 C-68.14 99.65 -72.13 104.76 -76 110 C-74.02 111.65 -72.04 113.3 -70 115 C-70.33 116.65 -70.66 118.3 -71 120 C-71.66 120 -72.32 120 -73 120 C-72.67 120.99 -72.34 121.98 -72 123 C-73.44 126.19 -73.44 126.19 -75 129 C-79.53 126.8 -81.04 124.59 -83 120 C-83.5 119.01 -83.5 119.01 -84 118 C-87.25 117.66 -87.25 117.66 -89.69 120.5 C-90.45 121.33 -91.21 122.15 -92 123 C-92 122.34 -92 121.68 -92 121 C-92.66 121 -93.32 121 -94 121 C-94.33 119.35 -94.66 117.7 -95 116 C-95.33 116.99 -95.66 117.98 -96 119 C-96.66 119 -97.32 119 -98 119 C-98.33 118.34 -98.66 117.68 -99 117 C-99.66 117 -100.32 117 -101 117 C-100.67 116.01 -100.34 115.02 -100 114 C-98.68 114 -97.36 114 -96 114 C-96 109.24 -97.1 108.53 -100 105 C-100 104.01 -100 103.02 -100 102 C-100.66 101.67 -101.32 101.34 -102 101 C-101.51 100.6 -101.01 100.2 -100.5 99.79 C-99.86 99.26 -99.22 98.73 -98.56 98.19 C-97.92 97.67 -97.29 97.14 -96.63 96.61 C-94.75 94.99 -94.75 94.99 -94 92 C-92.5 93.25 -92.5 93.25 -91 95 C-91 96.32 -91 97.64 -91 99 C-90.01 99 -89.02 99 -88 99 C-90.58 94.96 -93.25 91.49 -96.56 88 C-100.62 83.61 -104.43 79.08 -108.12 74.38 C-108.61 73.76 -109.1 73.14 -109.6 72.51 C-113 68.13 -113 68.13 -113 67 C-97.82 67 -82.64 67 -67 67 C-81.85 66.5 -81.85 66.5 -97 66 C-96.01 65.5 -96.01 65.5 -95 65 C-96.4 60.55 -98.65 58.18 -102 55 C-102 54.67 -102 54.34 -102 54 C-84.66 53.37 -67.35 52.83 -50 53 C-48.9 50.8 -47.81 48.6 -46.75 46.38 C-44.5 43.32 -42.57 43.04 -39 42 C-37.29 40.46 -37.29 40.46 -36 39 C-35.34 39 -34.68 39 -34 39 C-33.01 42.96 -33.01 42.96 -32 47 C-29.74 47.22 -29.74 47.22 -27.69 45 C-24.54 41.71 -22.31 37.97 -20 34.06 C-19.54 33.29 -19.08 32.53 -18.6 31.74 C-17.06 29.16 -15.53 26.58 -14 24 C-13.42 23.02 -12.84 22.05 -12.24 21.04 C-5.86 10.66 -5.86 10.66 0 0 Z " fill="#5DD9FE" transform="translate(794,603)"/>
<path d="M0 0 C-0.71 0.56 -1.43 1.11 -2.16 1.69 C-8.04 6.37 -13.44 11 -18 17 C-18.43 17.56 -18.87 18.12 -19.31 18.7 C-22.57 23.54 -22.92 28.39 -22 34 C-19.44 38.81 -16.03 40.23 -11 42 C-6.82 43.05 -2.83 43.15 1.47 43.21 C2.94 43.24 4.42 43.27 5.89 43.3 C8.18 43.34 10.48 43.37 12.77 43.4 C22.61 43.53 31.48 44.29 41 47 C38.12 48.92 35.67 49.88 32.44 51.06 C25.39 53.94 18.8 58.42 14.75 65.04 C13.48 68.36 13.38 71.54 14 75 C17.54 81.14 22.37 83.01 29 85 C30.87 85.44 32.74 85.87 34.61 86.29 C44.15 88.45 52.58 91.99 61 97 C61.33 97.66 61.66 98.32 62 99 C61.24 99.03 60.48 99.05 59.69 99.08 C51.35 99.54 44.32 100.43 38.44 106.75 C36.18 111.85 36.29 115.72 37.94 121 C42.11 127.07 47.91 131.34 54 135.38 C59.56 139.13 63.73 143.87 68 149 C67.67 149.66 67.34 150.32 67 151 C65.21 150.78 65.21 150.78 63.38 150.56 C60.76 150.58 59.39 150.74 57.2 152.21 C52.82 156.84 51.72 161.79 51 168 C47.75 164.46 47.06 160.61 46.06 156.06 C34.13 107.3 2.04 59.94 -40.75 33.31 C-56.37 23.94 -69.66 18.77 -88 18 C-88 17.67 -88 17.34 -88 17 C-87.34 17.03 -86.68 17.07 -86 17.1 C-65.46 17.85 -49.21 13.1 -30.15 6.17 C-24.18 4.02 -18.16 2.21 -12 0.69 C-10.83 0.39 -10.83 0.39 -9.63 0.08 C-6.16 -0.74 -3.39 -1.37 0 0 Z " fill="#38374B" transform="translate(1031,181)"/>
<path d="M0 0 C3.84 4.11 7.21 8.64 9 14 C8.07 15.9 8.07 15.9 6.69 17.94 C4.92 20.56 3.36 23.14 2 26 C6.67 27.57 9.8 28.47 14.5 26.62 C18.05 24.19 21.17 21.25 24.34 18.35 C27.51 15.55 30.79 12.92 34.12 10.31 C34.7 9.86 35.27 9.41 35.86 8.95 C39.83 5.85 43.89 2.9 48 0 C46.48 7.71 44.13 15.01 41.56 22.44 C41.34 23.07 41.13 23.7 40.9 24.35 C31.07 52.61 19.22 80.09 1 104 C0.26 104.98 0.26 104.98 -0.5 105.98 C-3.3 109.68 -6.13 113.35 -9 117 C-10.16 113.47 -9.91 110.58 -9.49 106.91 C-9.35 105.68 -9.21 104.44 -9.07 103.17 C-8.92 101.83 -8.76 100.48 -8.6 99.14 C-8.44 97.74 -8.29 96.35 -8.13 94.96 C-7.72 91.28 -7.3 87.61 -6.88 83.93 C-6.21 78.09 -5.55 72.25 -4.9 66.41 C-4.67 64.39 -4.44 62.37 -4.21 60.35 C-3.21 51.58 -2.52 42.82 -2 34 C-3.63 34.05 -3.63 34.05 -5.29 34.1 C-9.84 33.98 -11.62 32.99 -15 30 C-17.59 25.06 -17.88 19.45 -17 14 C-13.04 3.32 -13.04 3.32 -9 0.71 C-5.44 -0.55 -3.78 -0.82 0 0 Z " fill="#FCFCFC" transform="translate(210,578)"/>
<path d="M0 0 C6.8 4.64 10.68 10.84 12.79 18.75 C14.46 34.94 11.23 47.39 3.54 61.56 C-9.78 86.15 -14.2 113.37 -18.21 140.75 C-21.09 141.71 -22.91 141.85 -25.9 141.81 C-26.71 141.8 -27.51 141.79 -28.35 141.78 C-29.27 141.76 -29.27 141.76 -30.21 141.75 C-29.79 128.55 -27.66 115.7 -25.21 102.75 C-25 101.63 -25 101.63 -24.79 100.49 C-21.62 83.97 -14.04 68.49 -6.77 53.43 C-1.59 42.61 2.72 30.53 -0.9 18.44 C-3.04 14.27 -6.16 11.94 -10.21 9.75 C-17.96 7.35 -25.93 8.4 -33.21 11.75 C-36.92 14 -39.16 16.37 -40.7 20.5 C-42.4 28.01 -42.1 35.71 -38.57 42.61 C-36.47 45.92 -34.1 48.97 -31.6 52 C-30.21 53.75 -30.21 53.75 -30.21 54.75 C-35.83 55.15 -40.79 55.42 -45.61 52.21 C-51.81 46.54 -54.68 39.41 -55.62 31.17 C-55.88 20.86 -54.08 14.14 -47.12 6.43 C-34.73 -5.39 -15.2 -8.62 0 0 Z " fill="#5D4044" transform="translate(231.2109375,437.25390625)"/>
<path d="M0 0 C1.69 2.06 1.69 2.06 3 4 C2.67 4.66 2.34 5.32 2 6 C4.97 5.34 7.94 4.68 11 4 C9.47 7.07 7.02 7.33 3.88 8.56 C-14.04 15.92 -33.08 27.63 -41 46 C-43.1 52.31 -42.74 58.18 -39.88 64.19 C-27.8 85.72 -1.05 98.31 21 107 C18.48 108.31 16.06 109.34 13.38 110.31 C9.84 111.67 9.84 111.67 8.56 114.69 C8.28 115.83 8.28 115.83 8 117 C8.66 117 9.32 117 10 117 C10.33 116.34 10.66 115.68 11 115 C11.66 115.33 12.32 115.66 13 116 C13 115.34 13 114.68 13 114 C13.99 114 14.98 114 16 114 C16 114.66 16 115.32 16 116 C17.49 116.5 17.49 116.5 19 117 C18.5 118.98 18.5 118.98 18 121 C19.98 121.99 19.98 121.99 22 123 C15.41 121.73 9.65 119.85 3.56 117.06 C2.7 116.67 1.84 116.28 0.95 115.87 C-21.78 105.25 -46.12 89.93 -56.27 66.01 C-59.95 55.86 -58.31 45.67 -54 36 C-46.89 21.92 -35.03 12.33 -22 4 C-21.1 3.37 -20.2 2.73 -19.27 2.08 C-12.34 -2.6 -7.78 -2.59 0 0 Z " fill="#5AD9FE" transform="translate(551,527)"/>
<path d="M0 0 C0.54 0.25 1.08 0.49 1.63 0.75 C20.8 9.81 20.8 9.81 41 16 C37.32 20.6 33.33 24.7 29 28.69 C28.5 29.15 28 29.61 27.49 30.09 C24.19 33.1 20.73 35.57 17 38 C16.34 38.66 15.68 39.32 15 40 C13.8 40.92 12.59 41.83 11.37 42.73 C7.19 45.83 3.15 49.08 -0.88 52.38 C-1.92 53.22 -1.92 53.22 -2.98 54.08 C-6.02 56.56 -9.05 59.05 -12.05 61.59 C-13.32 62.66 -13.32 62.66 -14.62 63.75 C-15.34 64.36 -16.05 64.98 -16.79 65.61 C-19.56 67.35 -21.75 67.77 -25 68 C-28.37 66.56 -28.37 66.56 -31 65 C-29.59 60.17 -27.57 56.28 -25 52 C-25.43 51.4 -25.87 50.79 -26.31 50.17 C-27.15 48.97 -27.15 48.97 -28 47.75 C-28.56 46.96 -29.11 46.17 -29.69 45.36 C-31 43 -31 43 -31 39 C-29.06 36.88 -29.06 36.88 -27.66 35.57 C-21.34 29.59 -15.97 22.81 -10.75 15.88 C-10.25 15.22 -9.76 14.56 -9.25 13.89 C-5.92 9.4 -2.89 4.78 0 0 Z " fill="#53379B" transform="translate(243,539)"/>
<path d="M0 0 C1.56 12.65 2.26 25.28 2.35 38.02 C2.37 39.57 2.39 41.11 2.42 42.66 C2.63 55.8 1.33 68.2 -5 80 C-20.05 73.04 -32.67 57.35 -39.26 42.44 C-40.05 39.83 -40.14 37.71 -40 35 C-39.04 34.85 -39.04 34.85 -38.06 34.69 C-37.04 34.35 -37.04 34.35 -36 34 C-35.67 33.01 -35.34 32.02 -35 31 C-34.34 31 -33.68 31 -33 31 C-32.77 30.19 -32.53 29.37 -32.29 28.53 C-28.71 18.74 -22.73 6.71 -13 2 C-8.52 -0.01 -4.87 -0.06 0 0 Z " fill="#504E65" transform="translate(370,441)"/>
<path d="M0 0 C1.06 0.89 2.13 1.79 3.19 2.69 C4.08 3.44 4.08 3.44 4.98 4.2 C16 14.03 23.8 26.26 31 39 C31.63 40.11 31.63 40.11 32.27 41.23 C33.28 43.13 34.16 45.02 35 47 C35.39 47.91 35.77 48.81 36.17 49.75 C42.68 66.44 45.52 83.94 45.72 101.8 C45.82 109.51 46.87 114.68 51.31 121.12 C57.51 130.66 60.53 139.75 62 151 C66.29 151.99 70.58 152.98 75 154 C75 154.33 75 154.66 75 155 C73.58 154.86 72.17 154.71 70.75 154.56 C69.57 154.44 69.57 154.44 68.36 154.32 C66.18 154.02 64.12 153.58 62 153 C62.05 154.51 62.05 154.51 62.11 156.04 C62.32 165.21 61.55 173.13 59 182 C55.3 178.41 51.94 174.64 48.65 170.67 C47 168.75 47 168.75 44 168 C41.81 169.37 41.81 169.37 40 171 C40.75 169.06 40.75 169.06 42 167 C44.12 166.25 44.12 166.25 46 166 C49.8 154.43 49.44 142.04 44.5 130.89 C42.62 127.27 40.56 123.81 38.41 120.36 C31.47 108.79 30.69 95.16 29.39 81.99 C26.62 54.54 18.85 23.09 0 2 C0 1.34 0 0.68 0 0 Z " fill="#3A3A4E" transform="translate(1117,606)"/>
<path d="M0 0 C2.36 0.27 4.66 0.61 7 1 C29.03 4.7 49.25 4.54 71.36 1.36 C75.23 0.83 79.11 0.41 83 0 C83 2.64 83 5.28 83 8 C83.66 8 84.32 8 85 8 C86.16 11.47 86.07 14.36 86 18 C60.81 30.3 26.12 26.88 -0.14 19.84 C-2 19 -2 19 -4 16 C-4.57 10.2 -3.26 6.23 -1 1 C-0.67 0.67 -0.34 0.34 0 0 Z " fill="#604851" transform="translate(296,599)"/>
<path d="M0 0 C-0.41 11.21 -1.44 22.22 -2.91 33.34 C-3.89 40.89 -4.61 48.39 -5 56 C-16.58 59.16 -24.04 55.45 -34.06 50.02 C-42.34 45.68 -49.96 43.04 -59.25 42.44 C-60.51 42.35 -61.78 42.27 -63.08 42.18 C-64.52 42.09 -64.52 42.09 -66 42 C-62.75 39.38 -59.34 37.57 -55.62 35.69 C-37.53 26.24 -19.89 14.62 -4.13 1.63 C-2 0 -2 0 0 0 Z " fill="#38374B" transform="translate(185,714)"/>
<path d="M0 0 C-0.14 7.61 -2.91 11.5 -8 17 C-8.98 18.08 -8.98 18.08 -9.97 19.17 C-16.86 26.02 -25.28 28.68 -34.6 30.83 C-38.56 32.19 -40.4 33.85 -43.25 36.88 C-44.08 37.74 -44.91 38.6 -45.77 39.49 C-48.88 42.98 -50.97 45.42 -52 50 C-11.66 50.03 28.68 50.03 69.02 49.98 C73.79 49.97 78.55 49.96 83.31 49.96 C84.74 49.96 84.74 49.96 86.19 49.95 C101.54 49.94 116.89 49.94 132.24 49.96 C148 49.97 163.75 49.96 179.51 49.93 C189.23 49.91 198.95 49.91 208.67 49.93 C215.33 49.95 222 49.94 228.67 49.91 C232.51 49.89 236.36 49.89 240.2 49.91 C244.38 49.94 248.55 49.91 252.72 49.88 C254.54 49.9 254.54 49.9 256.39 49.93 C264.96 49.8 269.45 47.34 276 42 C281.2 38.82 284.74 37.39 291 38 C294.09 39.19 296.93 40.74 299.81 42.38 C300.57 42.79 301.34 43.2 302.12 43.62 C307.66 46.66 307.66 46.66 310 49 C310 49.99 310 50.98 310 52 C271.95 53.1 233.93 53.07 195.87 52.91 C187.18 52.87 178.5 52.85 169.81 52.82 C154.33 52.76 138.85 52.71 123.37 52.65 C108.37 52.59 93.37 52.53 78.37 52.48 C76.98 52.48 76.98 52.48 75.55 52.47 C70.88 52.46 66.2 52.44 61.53 52.42 C23.02 52.29 -15.49 52.15 -54 52 C-55 49 -55 49 -53.88 46.58 C-50.11 40.63 -46.4 36.17 -40.72 31.95 C-38.36 29.28 -38.96 27.49 -39 24 C-33.01 13.55 -24.01 7.9 -13 4 C-12.01 3.63 -11.01 3.25 -9.99 2.87 C-2.32 0 -2.32 0 0 0 Z " fill="#CCCDCD" transform="translate(559,831)"/>
<path d="M0 0 C6.14 3.04 9.72 7.51 13.25 13.31 C15.3 19.46 14.75 25.6 12.22 31.53 C8.89 37.63 2.67 41.17 -3.75 43.31 C-11.11 44.28 -16.39 43.31 -22.58 39.17 C-27.17 35.24 -30.45 29.96 -30.95 23.86 C-31.08 16.38 -30.02 12.12 -26.19 5.69 C-18.66 -1.64 -9.73 -3.92 0 0 Z " fill="#9467F1" transform="translate(465.75,416.6875)"/>
<path d="M0 0 C-1.67 3.48 -3.6 6.78 -5.56 10.1 C-6.28 11.32 -7 12.54 -7.71 13.75 C-8.09 14.38 -8.46 15.02 -8.85 15.67 C-15.08 26.23 -21.23 36.83 -27.12 47.59 C-28.69 50.44 -30.31 53.23 -32 56 C-34.7 54.65 -34.83 53.37 -35.92 50.57 C-36.46 49.17 -36.46 49.17 -37.02 47.75 C-37.41 46.74 -37.79 45.73 -38.19 44.69 C-38.58 43.66 -38.98 42.63 -39.39 41.57 C-42.02 34.68 -44.59 27.76 -47.06 20.81 C-47.36 19.98 -47.66 19.15 -47.97 18.3 C-48.37 17.14 -48.37 17.14 -48.79 15.96 C-49.02 15.29 -49.26 14.62 -49.5 13.93 C-50 12 -50 12 -50 8 C-42.19 5.69 -34.42 4.1 -26.38 2.88 C-25.31 2.71 -24.24 2.54 -23.14 2.36 C-6.62 -0.21 -6.62 -0.21 0 0 Z " fill="#FBFEFE" transform="translate(652,512)"/>
<path d="M0 0 C16.86 0.58 33.68 3.86 50 8 C49.41 14.7 47.19 20.65 44.88 26.94 C44.47 28.04 44.07 29.14 43.66 30.28 C40.45 39.01 36.91 47.56 33 56 C30.75 53.92 29.31 51.99 27.94 49.25 C27.56 48.51 27.18 47.76 26.79 47 C26.39 46.19 25.98 45.39 25.56 44.56 C18.35 30.57 10.33 17.03 1.33 4.12 C0 2 0 2 0 0 Z " fill="#FCFEFE" transform="translate(763,514)"/>
<path d="M0 0 C0.5 0.99 0.5 0.99 1 2 C0.17 4.12 0.17 4.12 -1.18 6.73 C-1.67 7.69 -2.16 8.65 -2.67 9.64 C-3.21 10.67 -3.75 11.69 -4.31 12.75 C-4.86 13.79 -5.41 14.84 -5.98 15.91 C-12.5 28.06 -20.06 38.4 -29.55 48.38 C-32.01 50.94 -32.01 50.94 -34.08 53.61 C-38.95 59.67 -45.04 65.01 -52.81 66.56 C-59.77 65.33 -65.37 60.1 -70 55 C-70.65 54.33 -71.31 53.65 -71.98 52.96 C-82.31 42.04 -93.13 27.45 -94 12 C-94.99 12 -95.98 12 -97 12 C-97 9.36 -97 6.72 -97 4 C-96.67 4.66 -96.34 5.32 -96 6 C-95.34 6 -94.68 6 -94 6 C-93.82 6.57 -93.63 7.14 -93.44 7.73 C-90.58 15.72 -86 22.24 -81 29 C-80.59 29.57 -80.18 30.13 -79.75 30.72 C-74.5 37.96 -69.08 44.44 -62 50 C-61.44 50.46 -60.89 50.93 -60.32 51.41 C-57.78 53.36 -56.35 54.02 -53.12 53.85 C-49.42 52.84 -47.95 51.54 -45.29 48.81 C-44.43 47.95 -43.58 47.08 -42.71 46.19 C-41.4 44.83 -41.4 44.83 -40.06 43.44 C-39.19 42.56 -38.33 41.67 -37.43 40.76 C-33.02 36.26 -28.76 31.66 -24.64 26.88 C-21.85 23.68 -18.92 20.6 -16 17.5 C-11.66 12.88 -7.36 8.24 -3.23 3.42 C-2.2 2.23 -1.11 1.11 0 0 Z " fill="#3A3A4F" transform="translate(1021,595)"/>
<path d="M0 0 C1.3 -0.04 1.3 -0.04 2.62 -0.08 C5.63 0.32 6.98 1.12 9.12 3.25 C9.12 4.24 9.12 5.23 9.12 6.25 C8.11 6.79 7.1 7.32 6.06 7.88 C-6.06 14.96 -17.42 29.87 -21.88 43.25 C-24.16 44.75 -26.43 46.11 -28.81 47.44 C-34.59 50.76 -39.78 54.33 -44.82 58.72 C-46.9 60.27 -48.34 60.84 -50.88 61.25 C-52.18 49.74 -44.39 38.22 -37.53 29.55 C-34.1 25.35 -30.52 21.27 -26.88 17.25 C-26.09 16.38 -25.3 15.5 -24.49 14.61 C-18.13 7.9 -9.63 0.17 0 0 Z " fill="#38374C" transform="translate(1016.875,819.75)"/>
<path d="M0 0 C0.66 0 1.32 0 2 0 C6.31 9.89 10.42 19.82 14 30 C14.3 30.85 14.6 31.71 14.92 32.59 C15.19 33.38 15.47 34.18 15.75 35 C15.99 35.7 16.23 36.4 16.48 37.12 C17 39 17 39 17 42 C1.82 45.77 -13.51 47.94 -29 50 C-27.86 47 -26.67 44.25 -24.93 41.54 C-24.54 40.91 -24.14 40.28 -23.73 39.63 C-23.3 38.97 -22.88 38.31 -22.44 37.62 C-21.53 36.19 -20.63 34.76 -19.72 33.33 C-19.27 32.61 -18.81 31.88 -18.34 31.14 C-11.94 20.93 -5.93 10.49 0 0 Z " fill="#FBFEFE" transform="translate(794,603)"/>
<path d="M0 0 C1.7 1.64 3.35 3.31 5 5 C5.66 5.67 6.33 6.33 7.01 7.02 C14.58 15 16.35 22.2 17 33 C17.31 31.93 17.31 31.93 17.63 30.84 C20.22 22.78 23.25 17.73 30.68 13.46 C33.09 12.24 35.52 11.08 38 10 C35.64 36.76 35.64 36.76 30.5 43.06 C25.96 46.58 23.74 47.22 18 47 C17.95 47.73 17.9 48.46 17.85 49.22 C17.31 56.43 16.34 63.45 15.06 70.56 C13.24 81.01 11.95 91.44 11 102 C10.34 102 9.68 102 9 102 C8.86 95.36 9.36 89.07 10.31 82.5 C10.45 81.55 10.58 80.59 10.72 79.61 C11.76 72.27 13.03 65 14.45 57.73 C15.77 50.7 15.77 50.7 13.71 44.26 C13.13 43.88 12.54 43.51 11.94 43.12 C5.59 38.36 0.51 31.65 -0.8 23.7 C-1.38 15.93 -1.85 7.62 0 0 Z " fill="#46875E" transform="translate(491,779)"/>
<path d="M0 0 C2.05 2.64 3.81 5.29 5.43 8.21 C5.89 9.03 6.35 9.86 6.82 10.7 C7.31 11.59 7.81 12.47 8.31 13.38 C13.42 22.44 18.87 31.25 24.54 39.98 C25.11 40.85 25.68 41.73 26.26 42.63 C26.77 43.41 27.27 44.18 27.79 44.97 C29 47 29 47 30 50 C20.85 49.48 12 48.28 3 46.56 C1.81 46.35 0.63 46.13 -0.6 45.9 C-5.63 44.96 -10.28 44.04 -15 42 C-13.35 36.98 -11.7 31.96 -10.04 26.95 C-9.47 25.24 -8.91 23.54 -8.35 21.83 C-7.55 19.37 -6.73 16.92 -5.92 14.46 C-5.67 13.7 -5.42 12.95 -5.17 12.17 C-3.75 7.91 -2.12 3.97 0 0 Z " fill="#FBFEFE" transform="translate(619,601)"/>
<path d="M0 0 C0.33 0 0.66 0 1 0 C1.04 0.61 1.08 1.22 1.12 1.84 C3.98 43.77 19.38 78.63 49.78 107.72 C51 109 51 109 51 110 C48.44 110.03 45.88 110.05 43.31 110.06 C42.59 110.07 41.87 110.08 41.13 110.09 C37.28 110.11 33.73 109.94 30 109 C30 108.67 30 108.34 30 108 C32.47 107.5 32.47 107.5 35 107 C34.24 106.28 33.48 105.57 32.69 104.83 C11.87 84.9 -2.32 57.19 -3.2 28.05 C-3.34 18.25 -3.25 9.35 0 0 Z " fill="#3A394E" transform="translate(1030,626)"/>
<path d="M0 0 C0.99 0.5 0.99 0.5 2 1 C1.58 1.9 1.16 2.81 0.72 3.74 C0.17 4.92 -0.37 6.1 -0.94 7.31 C-1.48 8.48 -2.03 9.66 -2.59 10.86 C-4.03 13.94 -4.03 13.94 -5 17 C1.75 16.88 5.3 14.8 10.61 10.69 C16.45 6.56 22.03 6.15 29 7 C34.33 8.47 39.89 10.13 44.66 13 C50.72 16.57 56.35 16.6 63.26 16.61 C65.03 16.63 65.03 16.63 66.83 16.66 C70.6 16.71 74.36 16.73 78.12 16.75 C80.6 16.78 83.08 16.81 85.55 16.84 C100.03 17.01 114.52 17.03 129 17 C129.33 17.66 129.66 18.32 130 19 C46.51 19 -36.98 19 -123 19 C-123 18.34 -123 17.68 -123 17 C-121.2 17.03 -121.2 17.03 -119.37 17.07 C-108.03 17.27 -96.68 17.42 -85.34 17.52 C-79.51 17.57 -73.68 17.64 -67.85 17.75 C-62.22 17.86 -56.58 17.92 -50.95 17.95 C-48.81 17.97 -46.66 18 -44.52 18.06 C-30.01 18.41 -22.62 17.08 -12 7 C-8.21 4.36 -4.2 1.92 0 0 Z " fill="#D5D5D5" transform="translate(992,864)"/>
<path d="M0 0 C16.83 0 33.66 0 51 0 C49.43 3.94 48.58 5.84 46.02 8.89 C45.44 9.6 44.85 10.3 44.25 11.03 C43.63 11.76 43.01 12.5 42.38 13.25 C41.75 14 41.12 14.76 40.47 15.53 C36.08 20.78 31.63 25.96 27 31 C23.69 29.9 22.95 29.08 20.77 26.48 C20.15 25.76 19.54 25.04 18.91 24.29 C18.28 23.53 17.65 22.78 17 22 C16.4 21.28 15.79 20.57 15.17 19.83 C13.35 17.67 11.55 15.49 9.75 13.31 C9.14 12.58 8.53 11.85 7.9 11.09 C7.31 10.38 6.72 9.66 6.11 8.93 C5.58 8.29 5.06 7.66 4.51 7 C2.84 4.79 1.43 2.38 0 0 Z " fill="#FCFEFE" transform="translate(681,670)"/>
<path d="M0 0 C3.16 0.26 4.8 0.84 7.31 2.81 C9.98 7.86 9.87 12.42 9 18 C6.37 25.61 1.95 31.78 -3.27 37.84 C-4.87 39.83 -5.96 41.68 -7 44 C-12.62 42.64 -16.04 38.75 -19 34 C-21.66 26.67 -22.82 18.78 -22 11 C-21.67 10.34 -21.34 9.68 -21 9 C-19.68 9 -18.36 9 -17 9 C-13 14.11 -13 14.11 -13 17 C-6.78 14.25 -3.38 8.28 -0.82 2.21 C-0.42 1.12 -0.42 1.12 0 0 Z " fill="#F6888D" transform="translate(468,469)"/>
<path d="M0 0 C2.6 3.08 3.62 5.68 4.62 9.56 C6.41 15.68 8.83 21.31 11.56 27.06 C11.95 27.88 12.34 28.7 12.74 29.55 C14.57 33.33 16.41 36.68 19 40 C19 40.66 19 41.32 19 42 C25.19 40.87 30.5 39.11 36.12 36.31 C37.62 35.59 39.11 34.87 40.6 34.14 C41.34 33.78 42.08 33.42 42.84 33.05 C45.45 31.78 48.09 30.56 50.73 29.34 C56.79 26.56 62.78 23.66 68.75 20.69 C69.43 20.35 70.11 20.01 70.81 19.66 C73.66 18.23 76.34 16.77 79 15 C78.52 19.31 76.1 21.15 73 24 C63.57 31.3 53.08 37.3 42.72 43.17 C40.97 44.17 39.23 45.18 37.48 46.19 C31.2 49.69 26.26 52.09 19 52 C6.54 43.22 2.85 23.83 -1 10 C-1.99 10.5 -1.99 10.5 -3 11 C-2.53 6.94 -2.12 3.53 0 0 Z " fill="#3A3A4E" transform="translate(941,511)"/>
<path d="M0 0 C3.85 3.75 7.4 7.66 10.88 11.75 C11.4 12.36 11.92 12.98 12.46 13.61 C24 27.2 24 27.2 24 30 C8.49 30 -7.02 30 -23 30 C-21.15 25.38 -19.14 22.5 -15.94 18.88 C-14.95 17.73 -13.96 16.59 -12.97 15.45 C-12.48 14.87 -11.98 14.3 -11.47 13.71 C-8.47 10.22 -5.58 6.62 -2.68 3.05 C-1 1 -1 1 0 0 Z " fill="#FBFEFE" transform="translate(707,465)"/>
<path d="M0 0 C3.82 4.15 4.09 8.54 3.89 14.03 C4.03 19.22 5.02 24.1 6 29.19 C8.19 41.27 9.36 51.28 5 63 C5.99 63.28 5.99 63.28 7 63.56 C11.31 65.63 14.51 68.77 18 72 C17.67 72.66 17.34 73.32 17 74 C15.67 72.76 15.67 72.76 14.31 71.5 C11.99 69.54 11.25 69.03 8.12 68.69 C7.42 68.79 6.72 68.89 6 69 C6 67.68 6 66.36 6 65 C3.63 65.18 2.31 65.68 0.66 67.4 C-0.58 68.92 -1.79 70.46 -3 72 C-3.33 72 -3.66 72 -4 72 C-4.61 52 -5.19 32.01 -5 12 C-4.01 12 -3.02 12 -2 12 C-2 11.01 -2 10.02 -2 9 C-0.68 9 0.64 9 2 9 C1.34 6.03 0.68 3.06 0 0 Z " fill="#252839" transform="translate(376,428)"/>
<path d="M0 0 C3.84 4.11 7.21 8.64 9 14 C8.14 15.69 8.14 15.69 6.81 17.56 C1.93 24.99 -0.43 32.15 -1 41 C-1.33 41 -1.66 41 -2 41 C-2 38.69 -2 36.38 -2 34 C-3.03 34.08 -4.06 34.16 -5.12 34.25 C-9.71 33.95 -11.58 33.03 -15 30 C-17.59 25.06 -17.88 19.45 -17 14 C-13.04 3.32 -13.04 3.32 -9 0.71 C-5.44 -0.55 -3.78 -0.82 0 0 Z " fill="#F4898E" transform="translate(210,578)"/>
<path d="M0 0 C-0.14 7.61 -2.91 11.5 -8 17 C-8.98 18.08 -8.98 18.08 -9.97 19.17 C-16.87 26.03 -25.29 28.66 -34.61 30.85 C-43.4 33.84 -49.42 43.29 -54 51 C-54.33 50.34 -54.66 49.68 -55 49 C-51.58 41.89 -47.02 36.62 -40.72 31.95 C-38.36 29.28 -38.96 27.49 -39 24 C-33.01 13.55 -24.01 7.9 -13 4 C-12.01 3.63 -11.01 3.25 -9.99 2.87 C-2.32 0 -2.32 0 0 0 Z " fill="#478860" transform="translate(559,831)"/>
<path d="M0 0 C0.33 7.26 0.66 14.52 1 22 C-3.59 23.84 -7.46 24.68 -12.28 25.44 C-15.03 25.92 -15.03 25.92 -17.62 27.07 C-21.04 28.41 -23.48 27.85 -27 27 C-28.71 25.45 -28.71 25.45 -30 24 C-20.42 5.33 -20.42 5.33 -9.94 0.62 C-7 0 -7 0 0 0 Z " fill="#F58A8E" transform="translate(370,441)"/>
<path d="M0 0 C8.36 -0.2 15.02 0.8 21.75 6.21 C26.72 11.02 30.64 15.96 34 22 C34.66 21.67 35.32 21.34 36 21 C38.68 30.05 41.19 39.06 42.81 48.38 C42.94 49.08 43.06 49.79 43.19 50.52 C43.72 53.75 44 56.71 44 60 C43.34 60 42.68 60 42 60 C41.86 59.22 41.73 58.45 41.59 57.65 C40.96 54.1 40.33 50.55 39.69 47 C39.37 45.17 39.37 45.17 39.04 43.3 C37.88 36.89 36.56 31 34 25 C33.01 25.33 32.02 25.66 31 26 C22.57 26.87 17.7 23.66 11 18.84 C7.35 15.75 5.59 11.97 3.62 7.69 C3.27 6.95 2.92 6.21 2.55 5.44 C1.69 3.64 0.84 1.82 0 0 Z " fill="#43855B" transform="translate(454,821)"/>
<path d="M0 0 C5.27 6.81 5.86 13.57 5 22 C3.42 28.18 1.08 32.96 -4 37 C-12.36 39.79 -20.87 37.64 -29 35 C-25.97 33.37 -22.98 32.37 -19.69 31.38 C-11.03 28.24 -6.83 21.78 -3 13.68 C-1.34 9.23 -0.6 4.69 0 0 Z " fill="#3B3A4F" transform="translate(1045,375)"/>
<path d="M0 0 C2 0 2 0 3.45 1.4 C5.31 3.59 7.16 5.79 9 8 C10.07 9.28 10.07 9.28 11.17 10.58 C19.32 20.49 19.32 20.49 19.19 27.5 C19.18 28.23 19.17 28.96 19.17 29.72 C19 32 19 32 18.25 34.29 C17.86 38.45 19.79 41.24 21.75 44.81 C24.59 50.11 27.17 55.26 29 61 C28.67 61.99 28.34 62.98 28 64 C27.78 63.46 27.56 62.92 27.33 62.37 C26.31 59.89 25.28 57.41 24.25 54.94 C23.9 54.09 23.55 53.24 23.2 52.37 C21.56 48.45 19.89 44.67 17.73 41 C16 38 16 38 16 36 C15.42 35.76 14.85 35.53 14.25 35.29 C8.15 31.8 3.25 24.08 0.61 17.65 C-0.72 11.89 -0.28 5.87 0 0 Z " fill="#45865D" transform="translate(460,778)"/>
<path d="M0 0 C1.08 2.16 1.32 3.81 1.69 6.19 C3.62 16 7.72 29.74 16 36 C20.48 36.38 23.28 35.72 27.22 33.63 C28.17 33.14 29.12 32.65 30.1 32.14 C31.08 31.62 32.06 31.1 33.06 30.56 C35.01 29.54 36.96 28.52 38.91 27.5 C39.77 27.05 40.62 26.59 41.51 26.12 C44.02 24.99 46.29 24.43 49 24 C43.6 31.69 36.04 35.52 28 40 C27.15 40.49 26.3 40.99 25.42 41.5 C22.73 42.98 20.53 43.97 17.44 44.12 C7.96 39.75 2.27 30.15 -1.24 20.68 C-2.9 14.8 -4.39 7.96 -1.56 2.25 C-1.05 1.51 -0.53 0.76 0 0 Z " fill="#3A394E" transform="translate(970,440)"/>
<path d="M0 0 C1.5 0.8 3 1.62 4.48 2.45 C5.62 3.06 5.62 3.06 6.79 3.67 C12.39 6.72 12.39 6.72 14.67 10.14 C-0.18 10.47 -15.03 10.8 -30.33 11.14 C-26.64 7.45 -23.98 5.05 -19.71 2.39 C-18.77 1.79 -17.83 1.2 -16.86 0.59 C-11.13 -2.71 -5.93 -2.86 0 0 Z " fill="#FBFBFC" transform="translate(854.33203125,870.86328125)"/>
<path d="M0 0 C2.45 1.23 4.69 2.52 7 4 C7 4.33 7 4.66 7 5 C-9.5 5.33 -26 5.66 -43 6 C-39.86 3.65 -36.74 1.49 -33.44 -0.62 C-32.49 -1.24 -31.54 -1.85 -30.56 -2.48 C-20.67 -8.36 -9.74 -4.2 0 0 Z " fill="#FAFAFB" transform="translate(1035,876)"/>
<path d="M0 0 C3.8 3.28 4.86 6.55 5.34 11.49 C5.42 19.74 5.29 26.05 -0.38 32.6 C-6.02 37.49 -13.95 37.4 -21 37 C-18.75 35.28 -16.55 33.72 -14.12 32.25 C-7.71 27.63 -3.13 21.68 -1 14 C-0.41 9.34 -0.13 4.7 0 0 Z " fill="#3A3A4E" transform="translate(1028,292)"/>
<path d="M0 0 C10.56 0.22 21.12 0.23 31.68 0.18 C32.01 0.84 32.34 1.5 32.68 2.18 C-10.22 2.18 -53.12 2.18 -97.32 2.18 C-92.94 -0.01 -89.63 -0.18 -84.87 -0.27 C-84.01 -0.29 -83.15 -0.31 -82.26 -0.34 C-79.39 -0.41 -76.51 -0.46 -73.63 -0.51 C-72.64 -0.53 -71.64 -0.55 -70.62 -0.57 C-47.07 -1.04 -23.54 -0.53 0 0 Z " fill="#C8C9CA" transform="translate(1089.3194122314453,880.8208160400391)"/>
<path d="M0 0 C6.52 5.59 9.4 13.87 10.22 22.26 C10.77 33.48 10.63 43.33 3.44 52.5 C1 55 1 55 -2 57 C-2.99 57 -3.98 57 -5 57 C-3.96 54.89 -2.9 52.81 -1.78 50.74 C-1.36 49.94 -0.94 49.14 -0.5 48.31 C-0.08 47.52 0.35 46.74 0.78 45.93 C3.74 38.81 4.36 31.7 4.31 24.06 C4.31 23.19 4.31 22.31 4.31 21.41 C4.21 15.16 3.34 9.82 1 4 C0.65 2.67 0.31 1.34 0 0 Z " fill="#3A3A4E" transform="translate(1212,665)"/>
<path d="M0 0 C-1.19 1.93 -2.41 3.84 -3.62 5.75 C-4.63 7.35 -4.63 7.35 -5.66 8.98 C-8.87 13.13 -12.67 16.31 -18 17 C-19.75 17.07 -21.5 17.09 -23.25 17.06 C-24.14 17.05 -25.03 17.04 -25.95 17.04 C-26.63 17.02 -27.3 17.01 -28 17 C-25.95 10.92 -22.37 8.28 -17 5 C-3.4 -1.7 -3.4 -1.7 0 0 Z " fill="#F28A8D" transform="translate(874,268)"/>
<path d="M0 0 C1.41 0.01 1.41 0.01 2.84 0.03 C5.92 0.06 9.01 0.1 12.09 0.14 C14.24 0.17 16.38 0.19 18.52 0.21 C24.16 0.28 29.79 0.35 35.42 0.42 C41.17 0.49 46.92 0.55 52.67 0.62 C63.95 0.75 75.23 0.88 86.51 1.02 C86.51 1.68 86.51 2.34 86.51 3.02 C73.5 3.07 60.5 3.1 47.49 3.13 C41.46 3.14 35.42 3.15 29.38 3.17 C23.56 3.19 17.74 3.21 11.91 3.21 C9.69 3.22 7.46 3.22 5.24 3.23 C2.13 3.25 -0.98 3.25 -4.09 3.25 C-5.48 3.26 -5.48 3.26 -6.9 3.27 C-7.74 3.27 -8.59 3.27 -9.46 3.26 C-10.19 3.26 -10.93 3.27 -11.69 3.27 C-13.49 3.02 -13.49 3.02 -15.49 1.02 C-10.27 -0.06 -5.3 -0.08 0 0 Z " fill="#CCCDCD" transform="translate(1333.49365234375,879.978271484375)"/>
<path d="M0 0 C0.66 0.33 1.32 0.66 2 1 C1.58 1.9 1.16 2.81 0.72 3.74 C0.17 4.92 -0.37 6.1 -0.94 7.31 C-1.48 8.48 -2.03 9.66 -2.59 10.86 C-4.03 13.94 -4.03 13.94 -5 17 C-14.4 17.5 -14.4 17.5 -24 18 C-18.37 11.25 -18.37 11.25 -15.37 9.3 C-14.73 8.87 -14.09 8.45 -13.42 8.02 C-12.77 7.6 -12.11 7.18 -11.44 6.75 C-10.78 6.32 -10.12 5.88 -9.44 5.44 C-2.68 1.03 -2.68 1.03 0 0 Z " fill="#FAFAFA" transform="translate(992,864)"/>
<path d="M0 0 C1.67 0.67 3.33 1.33 5 2 C5.89 2.35 6.77 2.7 7.69 3.06 C10 4 10 4 12 5 C11.64 7.62 11.24 8.77 9.29 10.62 C6.52 12.29 4.9 12.36 1.68 12.34 C0.62 12.34 -0.44 12.34 -1.53 12.34 C-2.67 12.32 -3.81 12.31 -4.98 12.29 C-6.16 12.29 -7.33 12.28 -8.53 12.28 C-12.27 12.26 -16.01 12.23 -19.75 12.19 C-22.29 12.17 -24.82 12.16 -27.36 12.15 C-33.57 12.11 -39.79 12.06 -46 12 C-46 11.67 -46 11.34 -46 11 C-30.49 10.67 -14.98 10.34 1 10 C0.67 6.7 0.34 3.4 0 0 Z " fill="#3E3C55" transform="translate(1091,869)"/>
<path d="M0 0 C0.99 0 1.98 0 3 0 C4.98 3.63 6.96 7.26 9 11 C4 14 4 14 0.88 13.81 C-2 13 -2 13 -5 11 C-3.78 6.97 -2.51 3.41 0 0 Z " fill="#342C6C" transform="translate(217,593)"/>
<path d="M0 0 C28.71 0 57.42 0 87 0 C87 0.33 87 0.66 87 1 C60.27 1.33 33.54 1.66 6 2 C5.34 3.32 4.68 4.64 4 6 C2.62 4.71 1.29 3.37 0 2 C0 1.34 0 0.68 0 0 Z " fill="#E4E5E7" transform="translate(1210,883)"/>
<path d="M0 0 C0.33 0 0.66 0 1 0 C1.05 2.85 1.09 5.71 1.12 8.56 C1.15 9.76 1.15 9.76 1.18 10.99 C1.22 16.07 0.64 20.19 -1 25 C-5.22 21.03 -8.61 16.69 -12 12 C-10.91 12.19 -9.81 12.37 -8.69 12.56 C-5.06 13.26 -5.06 13.26 -2 12 C-1.34 12.33 -0.68 12.66 0 13 C0 8.71 0 4.42 0 0 Z " fill="#2B2A3F" transform="translate(1177,763)"/>
<path d="M0 0 C0.99 0 1.98 0 3 0 C3.33 1.65 3.66 3.3 4 5 C4.99 5 5.98 5 7 5 C7 5.66 7 6.32 7 7 C7.66 7 8.32 7 9 7 C8.67 9.64 8.34 12.28 8 15 C6.02 15.66 4.04 16.32 2 17 C2 15 2 13 2 11 C1.67 10.67 1.34 10.34 1 10 C0.77 8.32 0.59 6.63 0.44 4.94 C0.35 4.02 0.27 3.1 0.18 2.15 C0.09 1.09 0.09 1.09 0 0 Z " fill="#5D4346" transform="translate(176,457)"/>
<path d="M0 0 C5.81 1.74 10.83 3.81 16 7 C16 7.33 16 7.66 16 8 C14.96 8.05 13.92 8.1 12.85 8.15 C5.08 8.55 -2.42 9.12 -10 11 C-9.67 10.34 -9.34 9.68 -9 9 C-8.01 9 -7.02 9 -6 9 C-6 7.35 -6 5.7 -6 4 C-5.34 4 -4.68 4 -4 4 C-4 4.66 -4 5.32 -4 6 C-2.19 6.03 -0.38 6.05 1.44 6.06 C2.95 6.08 2.95 6.08 4.5 6.1 C6.94 6.29 6.94 6.29 8 5 C5.36 3.68 2.72 2.36 0 1 C0 0.67 0 0.34 0 0 Z " fill="#27263B" transform="translate(1318,659)"/>
<path d="M0 0 C6.18 0.54 11.33 2.55 17 5 C17 5.33 17 5.66 17 6 C14.42 6.53 11.84 7.05 9.25 7.56 C8.52 7.71 7.79 7.87 7.04 8.02 C3.33 8.75 0.61 9.1 -3 8 C-0.69 7.34 1.62 6.68 4 6 C4.33 4.68 4.66 3.36 5 2 C3.35 1.67 1.7 1.34 0 1 C0 0.67 0 0.34 0 0 Z " fill="#27263B" transform="translate(1271,610)"/>
<path d="M0 0 C4 2 4 2 10 9 C3.07 8.01 -3.86 7.02 -11 6 C-11 5.67 -11 5.34 -11 5 C-7.7 5 -4.4 5 -1 5 C-1 4.34 -1 3.68 -1 3 C-0.34 2.67 0.32 2.34 1 2 C0.67 1.34 0.34 0.68 0 0 Z " fill="#232337" transform="translate(1368,710)"/>
<path d="M0 0 C1.42 0.12 2.83 0.24 4.25 0.38 C5.04 0.44 5.83 0.51 6.64 0.59 C9.09 1.02 10.85 1.79 13 3 C10.23 4.03 7.46 5.05 4.69 6.06 C3.51 6.5 3.51 6.5 2.31 6.96 C1.55 7.23 0.79 7.5 0.01 7.79 C-0.68 8.04 -1.38 8.3 -2.1 8.56 C-4 9 -4 9 -7 8 C-0.38 5 -0.38 5 3 5 C3 3.68 3 2.36 3 1 C2.01 0.67 1.02 0.34 0 0 Z " fill="#212035" transform="translate(1212,570)"/>
<path d="M0 0 C0.99 0.33 1.98 0.66 3 1 C3 1.66 3 2.32 3 3 C4.42 3.22 4.42 3.22 5.88 3.44 C9 4 9 4 11 5 C11 6.98 11 8.96 11 11 C10.01 11.5 10.01 11.5 9 12 C5 7.25 5 7.25 5 5 C4.01 5 3.02 5 2 5 C1.34 5.66 0.68 6.32 0 7 C0 4.69 0 2.38 0 0 Z " fill="#634147" transform="translate(170,855)"/>
<path d="M0 0 C0.78 0.19 1.57 0.37 2.38 0.56 C4.97 1.26 4.97 1.26 7 0 C7.86 2.12 8.72 4.25 9.56 6.38 C10.28 8.15 10.28 8.15 11 9.96 C12 13 12 13 11 15 C10.19 13.88 10.19 13.88 9.36 12.73 C8.64 11.75 7.92 10.76 7.19 9.75 C6.48 8.78 5.77 7.8 5.04 6.8 C3.38 4.52 1.7 2.25 0 0 Z " fill="#EAF2ED" transform="translate(477,829)"/>
<path d="M0 0 C0.66 0.33 1.32 0.66 2 1 C1.28 1.69 0.55 2.38 -0.2 3.09 C-5.94 8.64 -10.93 14.05 -15 21 C-15.33 20.34 -15.66 19.68 -16 19 C-12.22 11.14 -6.77 5.36 0 0 Z " fill="#307845" transform="translate(520,861)"/>
<path d="M0 0 C5.33 -0.51 7.83 0.73 12 4 C12.68 4.76 13.36 5.53 14.06 6.31 C15.89 8.3 15.89 8.3 18.56 7.88 C21.21 7.04 21.21 7.04 24 5 C22.12 8.88 22.12 8.88 21 10 C18.31 10.44 18.31 10.44 15 10 C13.33 8.56 11.92 6.98 10.45 5.34 C8.98 3.74 8.98 3.74 6.25 3.56 C3.98 3.9 3.98 3.9 2 5 C2.33 4.01 2.66 3.02 3 2 C2.01 1.34 1.02 0.68 0 0 Z " fill="#3A3851" transform="translate(1029,826)"/>
<path d="M0 0 C-3.24 2.16 -5.53 2.7 -9.31 3.5 C-13.66 4.43 -17.81 5.53 -22 7 C-19.81 4.52 -18.01 3.45 -14.88 2.44 C-12.79 1.8 -12.79 1.8 -11 1 C-10.67 0.34 -10.34 -0.32 -10 -1 C-6.06 -2.31 -3.88 -1.24 0 0 Z " fill="#27263B" transform="translate(1170,536)"/>
<path d="M0 0 C2.08 -0.05 4.17 -0.09 6.25 -0.12 C7.99 -0.16 7.99 -0.16 9.77 -0.2 C12.83 -0.01 14.44 0.39 17 2 C13.92 2.29 13.92 2.29 10.85 2.59 C10.24 2.72 9.63 2.86 9 3 C8.67 3.66 8.34 4.32 8 5 C5.36 4.67 2.72 4.34 0 4 C0 2.67 0 1.33 0 0 Z " fill="#29283E" transform="translate(1183,566)"/>
<path d="M0 0 C1.21 3.62 0.54 4.64 -1 8 C-1.66 8 -2.32 8 -3 8 C-4.82 12.54 -4.82 12.54 -4 17 C-5.32 17 -6.64 17 -8 17 C-8.29 17.8 -8.58 18.61 -8.88 19.44 C-10 22 -10 22 -12 23 C-10.47 17.48 -7.81 12.98 -4.88 8.12 C-4.41 7.34 -3.94 6.56 -3.46 5.75 C-2.31 3.83 -1.16 1.91 0 0 Z " fill="#27263B" transform="translate(265,502)"/>
<path d="M0 0 C0.66 0.33 1.32 0.66 2 1 C1.2 1.87 0.39 2.73 -0.44 3.62 C-2.97 6.63 -3.72 9.03 -4 13 C-4.99 11.68 -5.98 10.36 -7 9 C-8.98 10.98 -10.96 12.96 -13 15 C-13.66 14.67 -14.32 14.34 -15 14 C-10.19 9.08 -5.29 4.41 0 0 Z " fill="#27273C" transform="translate(910,171)"/>
<path d="M0 0 C0 3 0 3 -1.97 5.26 C-2.8 6.06 -3.64 6.86 -4.5 7.69 C-5.34 8.5 -6.17 9.3 -7.03 10.14 C-7.68 10.75 -8.33 11.37 -9 12 C-9.66 11.34 -10.32 10.68 -11 10 C-10.62 7.38 -10.62 7.38 -10 5 C-8.91 4.73 -7.81 4.46 -6.69 4.19 C-3.38 3.12 -2.05 2.65 0 0 Z " fill="#29283D" transform="translate(979,796)"/>
<path d="M0 0 C0.33 1.32 0.66 2.64 1 4 C0.01 4.5 0.01 4.5 -1 5 C-1.73 7.31 -2.4 9.65 -3 12 C-2.67 11.34 -2.34 10.68 -2 10 C0.31 10 2.62 10 5 10 C4.01 11.49 4.01 11.49 3 13 C1.05 13.29 1.05 13.29 -1.12 13.19 C-3.04 13.09 -3.04 13.09 -5 13 C-4.48 7.72 -2.75 4.43 0 0 Z " fill="#3D3B54" transform="translate(992,868)"/>
<path d="M0 0 C4.61 1.32 8.14 3.15 12 6 C12 6.33 12 6.66 12 7 C4.08 7.5 4.08 7.5 -4 8 C-1.31 5.31 1.38 4.94 5 4 C2.53 3.01 2.53 3.01 0 2 C0 1.34 0 0.68 0 0 Z " fill="#26253A" transform="translate(1081,273)"/>
<path d="M0 0 C0.33 1.32 0.66 2.64 1 4 C2.32 3.67 3.64 3.34 5 3 C3.62 4.5 3.62 4.5 2 6 C1.34 6 0.68 6 0 6 C0 6.66 0 7.32 0 8 C-0.66 8 -1.32 8 -2 8 C-2.33 10.97 -2.66 13.94 -3 17 C-2.01 17.33 -1.02 17.66 0 18 C-1.32 18 -2.64 18 -4 18 C-4.45 10.89 -3.33 6.28 0 0 Z " fill="#252439" transform="translate(824,863)"/>
<path d="M0 0 C0.33 0 0.66 0 1 0 C1 1.65 1 3.3 1 5 C0.34 5 -0.32 5 -1 5 C-1 6.32 -1 7.64 -1 9 C-1.99 9.66 -2.98 10.32 -4 11 C-4.72 13.06 -4.72 13.06 -5 15 C-5 14.34 -5 13.68 -5 13 C-6.32 13.33 -7.64 13.66 -9 14 C-7.88 12.23 -6.75 10.46 -5.62 8.69 C-5 7.7 -4.37 6.72 -3.73 5.7 C-2.5 3.79 -1.26 1.89 0 0 Z " fill="#29283D" transform="translate(224,662)"/>
<path d="M0 0 C6.3 0.58 11.99 2.04 18 4 C17.67 4.66 17.34 5.32 17 6 C14.03 5.5 14.03 5.5 11 5 C11 4.34 11 3.68 11 3 C9.93 3.25 8.86 3.5 7.75 3.75 C4 4 4 4 1.56 2.06 C1.05 1.38 0.53 0.7 0 0 Z " fill="#27253B" transform="translate(1056,266)"/>
<path d="M0 0 C2.64 0.33 5.28 0.66 8 1 C8 1.66 8 2.32 8 3 C9.27 3.37 9.27 3.37 10.56 3.75 C14.38 5.14 17.52 6.91 21 9 C19 10 19 10 17.14 9.41 C16.03 8.92 16.03 8.92 14.9 8.42 C13.7 7.89 13.7 7.89 12.47 7.34 C11.22 6.77 11.22 6.77 9.94 6.19 C8.68 5.63 8.68 5.63 7.39 5.07 C1.13 2.26 1.13 2.26 0 0 Z " fill="#3D3B53" transform="translate(1276,784)"/>
<path d="M0 0 C-0.33 3.3 -0.66 6.6 -1 10 C-3.67 6.44 -4.77 4.15 -6 0 C-4 -1 -4 -1 0 0 Z " fill="#545268" transform="translate(1415,548)"/>
<path d="M0 0 C1 3 1 3 0.38 4.81 C0.04 5.46 -0.3 6.12 -0.65 6.79 C-1.02 7.51 -1.38 8.22 -1.76 8.95 C-2.15 9.69 -2.54 10.43 -2.94 11.19 C-3.52 12.31 -3.52 12.31 -4.11 13.46 C-5.06 15.31 -6.03 17.16 -7 19 C-7.33 18.34 -7.66 17.68 -8 17 C-7.22 15.3 -7.22 15.3 -6.06 13.31 C-3.9 9.26 -3.62 6.54 -4 2 C-3.01 2 -2.02 2 -1 2 C-0.67 1.34 -0.34 0.68 0 0 Z " fill="#48292D" transform="translate(240,483)"/>
<path d="M0 0 C0.33 0 0.66 0 1 0 C1.16 1.03 1.33 2.06 1.5 3.12 C2.87 8.15 6.79 10.33 11 13 C8 13 8 13 5.56 11.5 C2.92 9.66 2.92 9.66 -1 10 C-1.03 8.52 -1.05 7.04 -1.06 5.56 C-1.07 4.74 -1.09 3.92 -1.1 3.07 C-1 1 -1 1 0 0 Z " fill="#27253B" transform="translate(1355,717)"/>
<path d="M0 0 C0.33 0.66 0.66 1.32 1 2 C2.32 1.67 3.64 1.34 5 1 C5 4 5 4 3.47 5.61 C1.65 7.07 -0.18 8.54 -2 10 C-1.34 6.7 -0.68 3.4 0 0 Z " fill="#EDEDEF" transform="translate(889,182)"/>
<path d="M0 0 C0.33 0 0.66 0 1 0 C1 2.31 1 4.62 1 7 C1.99 7.33 2.98 7.66 4 8 C3.01 8.5 3.01 8.5 2 9 C1.53 11.13 1.53 11.13 1.38 13.56 C1.3 14.39 1.23 15.22 1.15 16.07 C1.1 16.7 1.05 17.34 1 18 C-0.97 14.71 -1.24 12.24 -1.19 8.44 C-1.18 7.49 -1.17 6.54 -1.17 5.56 C-1 3 -1 3 0 0 Z " fill="#25233A" transform="translate(1051,134)"/>
<path d="M0 0 C0.33 0.66 0.66 1.32 1 2 C2.65 2 4.3 2 6 2 C6 1.34 6 0.68 6 0 C8.31 0.33 10.62 0.66 13 1 C7.5 4.67 1.39 4.13 -5 4 C-3.35 2.68 -1.7 1.36 0 0 Z " fill="#3C3A54" transform="translate(1320,877)"/>
<path d="M0 0 C-0.93 0.39 -1.86 0.78 -2.81 1.19 C-6.29 3.17 -7.02 4.66 -9 8 C-13 8 -13 8 -15 7 C-13.75 6.04 -12.5 5.08 -11.25 4.12 C-10.55 3.59 -9.86 3.06 -9.14 2.51 C-3.79 -1.26 -3.79 -1.26 0 0 Z " fill="#222137" transform="translate(842,822)"/>
<path d="M0 0 C0.33 0 0.66 0 1 0 C1.06 0.72 1.12 1.45 1.18 2.2 C1.61 7.17 2.07 12.09 3 17 C1.35 16.67 -0.3 16.34 -2 16 C-1.67 15.01 -1.34 14.02 -1 13 C-0.78 10.77 -0.59 8.54 -0.44 6.31 C-0.35 5.13 -0.27 3.95 -0.18 2.74 C-0.12 1.83 -0.06 0.93 0 0 Z " fill="#535264" transform="translate(940,730)"/>
<path d="M0 0 C0.33 0 0.66 0 1 0 C1.18 11.52 1.18 11.52 0 17 C-0.33 17 -0.66 17 -1 17 C-1.06 16.31 -1.12 15.63 -1.18 14.92 C-1.27 14.02 -1.35 13.12 -1.44 12.19 C-1.52 11.29 -1.6 10.4 -1.68 9.48 C-1.93 6.87 -1.93 6.87 -3 4 C-2.01 4 -1.02 4 0 4 C0 2.68 0 1.36 0 0 Z " fill="#5B373D" transform="translate(203,651)"/>
<path d="M0 0 C0 2.67 0 5.33 0 8 C-0.78 8.31 -1.57 8.62 -2.38 8.94 C-4.92 9.93 -4.92 9.93 -7 11 C-5.51 6.41 -3.15 3.56 0 0 Z " fill="#28283D" transform="translate(920,771)"/>
<path d="M0 0 C0.66 0.33 1.32 0.66 2 1 C0.68 2.65 -0.64 4.3 -2 6 C0.64 6.33 3.28 6.66 6 7 C6 7.33 6 7.66 6 8 C2.37 7.67 -1.26 7.34 -5 7 C-3.38 3.77 -2.52 2.29 0 0 Z " fill="#37344D" transform="translate(1127,877)"/>
<path d="M0 0 C0.33 0 0.66 0 1 0 C1 1.98 1 3.96 1 6 C-1.35 7.43 -2.48 8.09 -5.25 7.62 C-5.83 7.42 -6.4 7.21 -7 7 C-6.36 6.75 -5.72 6.5 -5.06 6.25 C-2.81 5.18 -2.81 5.18 -2.25 2.88 C-2.17 2.26 -2.08 1.64 -2 1 C-1.34 1.33 -0.68 1.66 0 2 C0 1.34 0 0.68 0 0 Z " fill="#252539" transform="translate(418,823)"/>
<path d="M0 0 C0.33 0 0.66 0 1 0 C1 2.97 1 5.94 1 9 C1.66 9 2.32 9 3 9 C3 9.66 3 10.32 3 11 C2.01 11 1.02 11 0 11 C0 12.65 0 14.3 0 16 C-0.33 16 -0.66 16 -1 16 C-1.1 10.55 -1.13 5.36 0 0 Z " fill="#58343B" transform="translate(196,619)"/>
<path d="M0 0 C0 0.66 0 1.32 0 2 C0.66 2.33 1.32 2.66 2 3 C-3.28 2.67 -8.56 2.34 -14 2 C-14 1.67 -14 1.34 -14 1 C-12.42 0.83 -10.83 0.66 -9.25 0.5 C-8.37 0.41 -7.49 0.31 -6.58 0.22 C-4 0 -4 0 0 0 Z " fill="#41146A" transform="translate(221,759)"/>
<path d="M0 0 C0.33 0 0.66 0 1 0 C1.33 2.31 1.66 4.62 2 7 C2.66 7 3.32 7 4 7 C3.67 7.99 3.34 8.98 3 10 C2.65 11.66 2.32 13.33 2 15 C-0.35 11.47 -0.21 9.97 -0.12 5.81 C-0.11 4.73 -0.09 3.64 -0.07 2.52 C-0.05 1.69 -0.02 0.86 0 0 Z " fill="#432527" transform="translate(176,460)"/>
<path d="M0 0 C0.99 0 1.98 0 3 0 C3 0.66 3 1.32 3 2 C3.66 2.33 4.32 2.66 5 3 C5.63 4.85 5.63 4.85 6.12 7.06 C6.29 7.8 6.46 8.53 6.63 9.29 C6.75 9.85 6.88 10.42 7 11 C3.17 7.58 1.28 4.99 0 0 Z " fill="#29283D" transform="translate(767,349)"/>
<path d="M0 0 C0.99 0 1.98 0 3 0 C2.67 5.94 2.34 11.88 2 18 C1.67 18 1.34 18 1 18 C0.67 12.06 0.34 6.12 0 0 Z " fill="#CAC9CF" transform="translate(810,252)"/>
<path d="M0 0 C-2.31 1.65 -4.62 3.3 -7 5 C-7 4.34 -7 3.68 -7 3 C-7.66 2.67 -8.32 2.34 -9 2 C-9 1.34 -9 0.68 -9 0 C-5.32 -0.92 -3.84 -0.96 0 0 Z " fill="#4A495C" transform="translate(1031,181)"/>
<path d="M0 0 C2.97 0.5 2.97 0.5 6 1 C5.19 2.94 5.19 2.94 4 5 C3.01 5.33 2.02 5.66 1 6 C1 5.01 1 4.02 1 3 C0.34 2.67 -0.32 2.34 -1 2 C-0.67 1.34 -0.34 0.68 0 0 Z " fill="#58566B" transform="translate(1209,849)"/>
<path d="M0 0 C0.99 0 1.98 0 3 0 C1.61 4.43 -0.61 6.87 -4 10 C-3 6.21 -2.19 3.28 0 0 Z " fill="#403D56" transform="translate(1136,803)"/>
<path d="M0 0 C3.54 1.91 5.79 3.63 8 7 C5 7 5 7 2 5 C2 4.34 2 3.68 2 3 C1.01 2.67 0.02 2.34 -1 2 C-0.67 1.34 -0.34 0.68 0 0 Z " fill="#E8E8EB" transform="translate(962,312)"/>
<path d="M0 0 C1.32 0 2.64 0 4 0 C3.55 1.46 3.09 2.92 2.62 4.38 C2.37 5.19 2.11 6 1.85 6.84 C1 9 1 9 -1 11 C-0.67 7.37 -0.34 3.74 0 0 Z " fill="#26263A" transform="translate(1053,146)"/>
<path d="M0 0 C0.33 0 0.66 0 1 0 C1.33 1.65 1.66 3.3 2 5 C2.99 5 3.98 5 5 5 C3.69 6.5 3.69 6.5 2 8 C1.01 8 0.02 8 -1 8 C-1.04 5.67 -1.04 3.33 -1 1 C-0.67 0.67 -0.34 0.34 0 0 Z " fill="#2B2A3E" transform="translate(967,873)"/>
<path d="M0 0 C0.33 0 0.66 0 1 0 C1 2.97 1 5.94 1 9 C1.66 9.33 2.32 9.66 3 10 C2.01 10.33 1.02 10.66 0 11 C-0.73 13.02 -0.73 13.02 -1 15 C-1.09 9.85 -0.85 5.08 0 0 Z " fill="#1E1E34" transform="translate(1110,316)"/>
<path d="M0 0 C0.66 0.33 1.32 0.66 2 1 C0.69 3 0.69 3 -1 5 C-2.67 5 -4.33 5 -6 5 C-6 4.34 -6 3.68 -6 3 C-4.04 1.93 -2.03 0.93 0 0 Z " fill="#E0E0E3" transform="translate(823,861)"/>
<path d="M0 0 C0.33 1.32 0.66 2.64 1 4 C0.34 4.66 -0.32 5.32 -1 6 C-1 6.66 -1 7.32 -1 8 C-2.65 8.33 -4.3 8.66 -6 9 C-4.02 6.03 -2.04 3.06 0 0 Z " fill="#25243A" transform="translate(937,747)"/>
<path d="M0 0 C7.38 -0.37 7.38 -0.37 10.5 1.5 C10.99 2 11.49 2.49 12 3 C11.67 3.66 11.34 4.32 11 5 C8.52 4.01 8.52 4.01 6 3 C6 2.34 6 1.68 6 1 C4.02 1 2.04 1 0 1 C0 0.67 0 0.34 0 0 Z " fill="#1F1E34" transform="translate(1014,820)"/>
<path d="M0 0 C1.32 0 2.64 0 4 0 C4 2.64 4 5.28 4 8 C3.57 7.38 3.13 6.76 2.69 6.12 C1 3.78 1 3.78 -2 2 C-1.34 1.34 -0.68 0.68 0 0 Z " fill="#29283D" transform="translate(413,805)"/>
<path d="M0 0 C4.11 1.45 7.43 3.51 11 6 C9 7 9 7 7.19 6.94 C3.79 5.48 2.23 2.92 0 0 Z " fill="#252539" transform="translate(1356,702)"/>
<path d="M0 0 C2.83 3.2 3.52 5.78 4 10 C3.34 8.68 2.68 7.36 2 6 C1.01 6.33 0.02 6.66 -1 7 C-0.67 4.69 -0.34 2.38 0 0 Z " fill="#18192B" transform="translate(409,832)"/>
<path d="M0 0 C2.4 2.4 2.34 3.33 2.62 6.62 C2.7 7.44 2.77 8.26 2.85 9.1 C2.9 9.73 2.95 10.35 3 11 C0.4 8.29 0.01 7.11 -0.19 3.25 C-0.13 2.18 -0.06 1.11 0 0 Z " fill="#25243A" transform="translate(387,644)"/>
<path d="M0 0 C2.95 2.74 5.19 5.38 7 9 C6.67 9.66 6.34 10.32 6 11 C0.43 4.86 0.43 4.86 0 0 Z " fill="#212036" transform="translate(395,504)"/>
<path d="M0 0 C0.66 0 1.32 0 2 0 C1.81 2.88 1.81 2.88 1 6 C-1.56 7.38 -1.56 7.38 -4 8 C-2.88 5.03 -1.78 2.67 0 0 Z " fill="#28273E" transform="translate(841,210)"/>
<path d="M0 0 C1 2 1 2 0.31 4.56 C-1 7 -1 7 -3.12 7.81 C-3.74 7.87 -4.36 7.94 -5 8 C-3.63 5.05 -2.01 2.56 0 0 Z " fill="#28263C" transform="translate(209,684)"/>
<path d="M0 0 C0 4.39 -2.13 5.77 -5 9 C-5.66 8.67 -6.32 8.34 -7 8 C-4.69 5.36 -2.38 2.72 0 0 Z " fill="#232238" transform="translate(962,119)"/>
<path d="M0 0 C2.97 0.99 5.94 1.98 9 3 C9 3.33 9 3.66 9 4 C7.02 4 5.04 4 3 4 C2.67 4.66 2.34 5.32 2 6 C1.34 4.02 0.68 2.04 0 0 Z " fill="#171829" transform="translate(433,865)"/>
<path d="M0 0 C1.32 0 2.64 0 4 0 C4 0.66 4 1.32 4 2 C5.65 2 7.3 2 9 2 C9 2.33 9 2.66 9 3 C6.03 3 3.06 3 0 3 C0 2.01 0 1.02 0 0 Z " fill="#EDEDEF" transform="translate(317,386)"/>
<path d="M0 0 C0.99 0.33 1.98 0.66 3 1 C3 2.65 3 4.3 3 6 C2.01 6.33 1.02 6.66 0 7 C0 4.69 0 2.38 0 0 Z " fill="#EAE6E7" transform="translate(186,815)"/>
<path d="M0 0 C0.33 0 0.66 0 1 0 C1 2.31 1 4.62 1 7 C-0.65 6.01 -2.3 5.02 -4 4 C-3.67 3.34 -3.34 2.68 -3 2 C-2.01 2 -1.02 2 0 2 C0 1.34 0 0.68 0 0 Z " fill="#242337" transform="translate(417,814)"/>
<path d="M0 0 C0.33 0 0.66 0 1 0 C1 1.65 1 3.3 1 5 C-0.65 5.66 -2.3 6.32 -4 7 C-2.93 4.08 -2.22 2.22 0 0 Z " fill="#25253B" transform="translate(912,782)"/>
<path d="M0 0 C0.99 0.66 1.98 1.32 3 2 C1.35 3.32 -0.3 4.64 -2 6 C-2.66 5.67 -3.32 5.34 -4 5 C-2.68 3.35 -1.36 1.7 0 0 Z " fill="#29293D" transform="translate(214,677)"/>
<path d="M0 0 C1.88 3.77 2.22 5.03 2 9 C1.01 9.33 0.02 9.66 -1 10 C-0.67 6.7 -0.34 3.4 0 0 Z " fill="#DFD9E1" transform="translate(214,567)"/>
<path d="M0 0 C0.99 0.33 1.98 0.66 3 1 C2.34 3.31 1.68 5.62 1 8 C-1 5 -1 5 -0.62 2.31 C-0.42 1.55 -0.21 0.79 0 0 Z " fill="#E8E8EA" transform="translate(1050,129)"/>
<path d="M0 0 C0.99 0 1.98 0 3 0 C2.67 1.65 2.34 3.3 2 5 C0.35 4.67 -1.3 4.34 -3 4 C-2.5 3.53 -2.01 3.05 -1.5 2.56 C0.12 1.24 0.12 1.24 0 0 Z " fill="#39394B" transform="translate(994,95)"/>
<path d="M0 0 C0.62 1.88 0.62 1.88 1 4 C0.34 4.66 -0.32 5.32 -1 6 C-1.99 5.67 -2.98 5.34 -4 5 C-2.68 3.35 -1.36 1.7 0 0 Z " fill="#26263C" transform="translate(980,849)"/>
<path d="M0 0 C0 0.99 0 1.98 0 3 C-2 4.69 -2 4.69 -4 6 C-4.33 5.01 -4.66 4.02 -5 3 C-3.35 2.01 -1.7 1.02 0 0 Z " fill="#222238" transform="translate(989,785)"/>
<path d="M0 0 C0.33 0.66 0.66 1.32 1 2 C-0.65 3.32 -2.3 4.64 -4 6 C-4.66 5.34 -5.32 4.68 -6 4 C-4.02 2.68 -2.04 1.36 0 0 Z " fill="#232237" transform="translate(146,740)"/>
<path d="M0 0 C0.33 0 0.66 0 1 0 C1 2.64 1 5.28 1 8 C0.01 8.5 0.01 8.5 -1 9 C-1.66 8.34 -2.32 7.68 -3 7 C-2.01 6.67 -1.02 6.34 0 6 C0 4.02 0 2.04 0 0 Z " fill="#5C383E" transform="translate(199,687)"/>
<path d="M0 0 C2 3 2 3 1.75 5.12 C1 7 1 7 -1 8 C-0.67 5.36 -0.34 2.72 0 0 Z " fill="#E4E3E6" transform="translate(897,151)"/>
<path d="M0 0 C0 2.84 -0.4 5.24 -1 8 C-1.33 7.34 -1.66 6.68 -2 6 C-2.66 5.67 -3.32 5.34 -4 5 C-2.68 3.35 -1.36 1.7 0 0 Z " fill="#26253C" transform="translate(891,136)"/>
<path d="M0 0 C1.98 0.99 1.98 0.99 4 2 C3.67 3.65 3.34 5.3 3 7 C1.25 4.38 0.61 2.96 0 0 Z " fill="#E4E5E6" transform="translate(410,832)"/>
<path d="M0 0 C3.88 1.75 3.88 1.75 5 4 C3.35 4 1.7 4 0 4 C0 2.68 0 1.36 0 0 Z " fill="#D6D7DB" transform="translate(384,565)"/>
<path d="M0 0 C0.33 0 0.66 0 1 0 C0.67 2.31 0.34 4.62 0 7 C-0.33 6.01 -0.66 5.02 -1 4 C-1.66 3.67 -2.32 3.34 -3 3 C-2.01 2.67 -1.02 2.34 0 2 C0 1.34 0 0.68 0 0 Z " fill="#26253A" transform="translate(459,543)"/>
<path d="M0 0 C1.32 0.33 2.64 0.66 4 1 C4 2.98 4 4.96 4 7 C3.71 6.4 3.42 5.8 3.12 5.19 C1.95 2.81 1.95 2.81 0 0 Z " fill="#7E6268" transform="translate(188,765)"/>
<path d="M0 0 C1.32 0 2.64 0 4 0 C4 0.99 4 1.98 4 3 C2.35 2.67 0.7 2.34 -1 2 C-0.67 1.34 -0.34 0.68 0 0 Z " fill="#2E2D46" transform="translate(1210,830)"/>
<path d="M0 0 C0 0.99 0 1.98 0 3 C-0.99 3.66 -1.98 4.32 -3 5 C-3.33 4.01 -3.66 3.02 -4 2 C-2.68 1.34 -1.36 0.68 0 0 Z " fill="#212138" transform="translate(994,779)"/>
<path d="M0 0 C3.88 1.75 3.88 1.75 5 4 C3.06 3.69 3.06 3.69 1 3 C0.67 2.01 0.34 1.02 0 0 Z " fill="#E6E6E8" transform="translate(1162,774)"/>
<path d="M0 0 C0.99 0 1.98 0 3 0 C3 0.99 3 1.98 3 3 C1.68 3.33 0.36 3.66 -1 4 C-1 1 -1 1 0 0 Z " fill="#434255" transform="translate(395,683)"/>
<path d="M0 0 C-0.33 0.99 -0.66 1.98 -1 3 C-1.99 3.33 -2.98 3.66 -4 4 C-4.33 3.01 -4.66 2.02 -5 1 C-2 0 -2 0 0 0 Z " fill="#E8E8EB" transform="translate(1218,575)"/>
<path d="M0 0 C-1.81 1.06 -1.81 1.06 -4 2 C-4.99 1.67 -5.98 1.34 -7 1 C-3.38 -1.12 -3.38 -1.12 0 0 Z " fill="#E6E6E8" transform="translate(1157,541)"/>
<path d="M0 0 C0.99 0.33 1.98 0.66 3 1 C1.35 2.32 -0.3 3.64 -2 5 C-1.34 3.35 -0.68 1.7 0 0 Z " fill="#E6E7E9" transform="translate(1085,336)"/>
<path d="M0 0 C0.62 1.88 0.62 1.88 1 4 C0.34 4.66 -0.32 5.32 -1 6 C-1.33 4.35 -1.66 2.7 -2 1 C-1.34 0.67 -0.68 0.34 0 0 Z " fill="#DADBDE" transform="translate(812,276)"/>
<path d="M0 0 C-1.65 0.66 -3.3 1.32 -5 2 C-5.33 1.34 -5.66 0.68 -6 0 C-3.51 -1.25 -2.59 -0.78 0 0 Z " fill="#313344" transform="translate(1031,181)"/>
<path d="M0 0 C1.98 0.99 1.98 0.99 4 2 C2.02 2.99 2.02 2.99 0 4 C0 2.68 0 1.36 0 0 Z " fill="#26253B" transform="translate(1395,849)"/>
<path d="M0 0 C0.99 0.33 1.98 0.66 3 1 C3.33 1.99 3.66 2.98 4 4 C3.01 4 2.02 4 1 4 C0.67 2.68 0.34 1.36 0 0 Z " fill="#EBEAED" transform="translate(1308,804)"/>
<path d="M0 0 C1.98 0.99 1.98 0.99 4 2 C2.02 2.99 2.02 2.99 0 4 C0 2.68 0 1.36 0 0 Z " fill="#402490" transform="translate(249,580)"/>
<path d="M0 0 C1.32 0.33 2.64 0.66 4 1 C3.34 2.32 2.68 3.64 2 5 C1.34 3.35 0.68 1.7 0 0 Z " fill="#E8E7E9" transform="translate(1353,353)"/>
<path d="M0 0 C0.99 0.33 1.98 0.66 3 1 C2.67 2.32 2.34 3.64 2 5 C2 4.34 2 3.68 2 3 C1.34 3 0.68 3 0 3 C0 2.01 0 1.02 0 0 Z " fill="#EAE9EC" transform="translate(1105,252)"/>
<path d="M0 0 C0.99 0.33 1.98 0.66 3 1 C1.68 1.99 0.36 2.98 -1 4 C-0.67 2.68 -0.34 1.36 0 0 Z " fill="#E6E7E9" transform="translate(926,154)"/>
<path d="M0 0 C1.32 0.33 2.64 0.66 4 1 C3.67 1.66 3.34 2.32 3 3 C2.34 3 1.68 3 1 3 C0.67 2.01 0.34 1.02 0 0 Z " fill="#E4E4E7" transform="translate(377,429)"/>
<path d="M0 0 C0.66 0.33 1.32 0.66 2 1 C2 1.66 2 2.32 2 3 C1.01 3 0.02 3 -1 3 C-0.67 2.01 -0.34 1.02 0 0 Z " fill="#E2E1E4" transform="translate(1173,785)"/>
<path d="M0 0 C0.99 0.33 1.98 0.66 3 1 C2.34 1.66 1.68 2.32 1 3 C0.67 2.01 0.34 1.02 0 0 Z " fill="#E8E8EA" transform="translate(1318,294)"/>
<path d="M0 0 C0.99 0.33 1.98 0.66 3 1 C2.34 1.66 1.68 2.32 1 3 C0.67 2.01 0.34 1.02 0 0 Z " fill="#E5E5E7" transform="translate(1244,208)"/>
<path d="M0 0 C0.99 0.33 1.98 0.66 3 1 C2.34 1.66 1.68 2.32 1 3 C0.67 2.01 0.34 1.02 0 0 Z " fill="#EDEDEE" transform="translate(1064,145)"/>
<path d="M0 0 C0.66 0.33 1.32 0.66 2 1 C2 1.66 2 2.32 2 3 C1.01 2.67 0.02 2.34 -1 2 C-0.67 1.34 -0.34 0.68 0 0 Z " fill="#EDECEF" transform="translate(1148,141)"/>
</svg>
